<?xml version="1.0" standalone="no"?>
<!DOCTYPE svg PUBLIC "-//W3C//DTD SVG 20010904//EN"
 "http://www.w3.org/TR/2001/REC-SVG-20010904/DTD/svg10.dtd">
<svg version="1.0" xmlns="http://www.w3.org/2000/svg"
 width="700.000000pt" height="700.000000pt" viewBox="0 0 700.000000 700.000000"
 preserveAspectRatio="xMidYMid meet">
<metadata>
Created by potrace 1.11, written by Peter Selinger 2001-2013
</metadata>
<g transform="translate(0.000000,700.000000) scale(0.100000,-0.100000)"
fill="#000000" stroke="none">
<path d="M1230 4423 c-168 -493 -307 -903 -308 -911 -2 -8 117 -423 265 -923
l268 -909 585 0 585 0 94 293 c52 160 98 300 103 310 8 16 46 17 583 17 316 0
575 1 575 3 0 1 -47 153 -103 337 l-103 335 -381 5 -380 5 245 777 c135 428
248 776 250 774 2 -3 201 -645 442 -1428 l438 -1423 538 -3 539 -2 295 871
c162 479 301 891 309 914 14 43 14 43 -255 949 l-269 906 -337 0 -336 0 9 -32
c5 -18 119 -426 253 -907 l244 -874 -216 -588 c-120 -324 -219 -589 -222 -589
-3 0 -169 487 -369 1083 -200 595 -427 1268 -504 1495 l-139 412 -422 0 -422
0 -533 -1587 c-294 -874 -537 -1591 -541 -1596 -3 -4 -92 303 -197 682 l-191
689 334 897 c184 494 334 902 334 907 0 4 -170 8 -377 8 l-378 0 -305 -897z"/>
</g>
</svg>
