<svg xmlns="http://www.w3.org/2000/svg" fill="#e63946" viewBox="0 0 511.998 511.998">
  <path d="M98.649 430.256c-46.365 28.67-71.17 30.939-78.916 23.51-7.75-7.433-6.519-32.307 20.182-79.832 24.953-44.412 65.374-96.693 113.818-147.211l-11.279-10.817c-49.33 51.442-90.583 104.845-116.163 150.373-19.228 34.22-37.848 79.134-17.375 98.766 5.84 5.6 13.599 7.935 22.484 7.935 22.269 0 51.606-14.677 75.469-29.432 44.416-27.464 96.044-70.919 145.373-122.362l-11.279-10.817c-48.446 50.519-98.987 93.095-142.314 119.887zM254.7343024 294.9494328l-18.4701402-17.7101469 10.8161388-11.2802904 18.4701402 17.7101469zM285.5160013 324.4726171l-18.4701402-17.7101469 10.8161388-11.2802904 18.4701402 17.7101469zM315.5431323 317.8065811l-73.8863352-70.8461244 10.8161388-11.2802904 73.8863352 70.8461244zM500.916 41.287c-7.769 1.59-76.412 16.062-93.897 34.294l-50.728 52.899-114.703-3.629-39.198 40.876 79.28 40.569-21.755 22.687 72.848 69.858 21.755-22.687 43.857 77.51 39.197-40.876-8.433-114.451 50.727-52.899c17.485-18.234 29.067-87.422 30.331-95.251l1.801-11.169-11.082 2.269zM228.209 161.383l19.842-20.692 93.688 2.964-48.775 50.864-64.755-33.136zm173.423 166.303l-35.822-63.308 48.776-50.865 6.886 93.482-19.84 20.691zm-69.334-50.943l-50.287-48.223L412.89 92.037l50.288 48.223-130.88 136.483zm140.711-148.707l-48.316-46.334c14.54-8.427 44.787-17.217 68.076-22.632-4.433 23.497-11.949 54.085-19.76 68.966z"/>
  <path d="M326.3351506 257.2508767l-24.627816-23.614452 10.8161388-11.2802904 24.627816 23.614452zM431.3851269 134.4143448l-11.8079181 12.3146298-11.2802904-10.8161388 11.8079181-12.3146298zM401.8382343 165.1828786l-11.2802904-10.8161388 11.807226-12.313908 11.2802904 10.8161388zM384.1214887 183.6601939l-11.2802904-10.8161388 11.807226-12.313908 11.2802904 10.8161388zM175.1906663 184.5145099l11.0505588 11.0505588-23.581785 23.581785-11.0505588-11.0505588zM190.903477 168.7955826l11.048996 11.0521216-7.8626496 7.860426-11.048996-11.0521216z"/>
</svg>
