<svg class="icon lander" xmlns="http://www.w3.org/2000/svg" viewBox="0 0 512 512" aria-label="Landing vehicle">
  <path d="M51.1 338.883h409.81v15.507H51.1zM153.676 244.052h204.648V118.214H153.676v125.838zm15.507-110.332h173.634v94.825H169.183V133.72z"/>
  <path d="M203.223 152.001l10.965 10.965-15.761 15.762-10.965-10.965zM195.346 207.17l63.047-63.047 10.965 10.965-63.047 63.047zM261.486 210.26l-10.965-10.965 15.761-15.761 10.965 10.965zM282.038 183.528l31.52-31.52 10.964 10.964-31.52 31.52zM308.764 218.147L297.8 207.182l15.761-15.761 10.965 10.965zM216.597 267.945h15.762v15.507h-15.762zM248.117 267.945h15.762v15.507h-15.762zM279.647 267.945h15.762v15.507h-15.762z"/>
  <path d="M508.113 496.041l-17.955.173-34.471-110.306h36.704v-78.554H468.67L411.895 63.047h-23.756c-14.756-18.184-33.284-33.337-54.025-44.082C310.166 6.558 283.158 0 256.01 0c-27.154 0-54.167 6.56-78.118 18.972-20.734 10.745-39.258 25.894-54.012 44.075h-23.775L50.969 274.479V165.37H35.463v141.983H19.61v78.554h36.704L21.843 496.213l-17.956-.173-.15 15.506 47.285.454.15-15.506-13.132-.126 34.52-110.461h51.715c15.157 19.676 34.671 36.029 56.67 47.429 23.951 12.412 50.964 18.972 78.118 18.972 27.149 0 54.156-6.558 78.104-18.965 22.004-11.399 41.523-27.757 56.683-47.437h45.591l34.52 110.461-13.132.126.15 15.506 47.285-.454-.151-15.504zM412.399 133.72l22.036 94.825h-36.706V133.72h14.67zM185.026 32.74c22.067-11.435 45.949-17.233 70.984-17.233 25.029 0 48.908 5.795 70.971 17.227 15.006 7.774 28.735 18.093 40.483 30.313H144.555C156.3 50.83 170.024 40.513 185.026 32.74zM99.601 133.72h14.67v94.825H77.564l22.037-94.825zm-25.64 110.332h55.818V118.214h-26.573l9.217-39.66h18.654l.255.187c.045-.063.095-.124.142-.187h249.075c.04.055.083.107.123.163l.222-.163h18.686l9.217 39.66h-26.573v125.839h55.818l14.711 63.301H59.25l14.711-63.302zm256.072 175.523c-22.063 11.43-45.941 17.227-70.971 17.227-25.035 0-48.917-5.797-70.984-17.233-16.355-8.476-31.194-19.972-43.601-33.662h229.169c-12.409 13.695-27.253 25.192-43.613 33.668zM35.116 370.4v-47.54h441.768v47.54H35.116z"/>
  <path d="M263.754 496.193v-39.23h-15.507v39.378l-15.964.153.149 15.506 47.285-.454-.148-15.505zM35.459 141.731h15.507v15.762H35.459z"/>
</svg>
