<svg class="icon moon-rover" xmlns="http://www.w3.org/2000/svg" viewBox="0 0 496 496" aria-label="moon rover">
  <path d="M88 376c-17.648 0-32 14.352-32 32s14.352 32 32 32 32-14.352 32-32-14.352-32-32-32zm0 48c-8.824 0-16-7.176-16-16s7.176-16 16-16 16 7.176 16 16-7.176 16-16 16zM376 408c0 17.648 14.352 32 32 32s32-14.352 32-32-14.352-32-32-32-32 14.352-32 32zm48 0c0 8.824-7.176 16-16 16s-16-7.176-16-16 7.176-16 16-16 16 7.176 16 16z"/>
  <path d="M494.144 85.12L496 82.896V56h-80V32h16V16h-16V0h-16v16h-16v16h16v24h-80v26.896l1.856 2.224c1.128 1.352 27.08 31.624 78.144 34.584v216.768c-4.112.456-8.104 1.288-11.976 2.408l-6.312-15.248-14.784 6.128 6.312 15.232a72.994 72.994 0 00-10.128 6.808l-11.68-11.68-11.312 11.312 11.68 11.68c-1.264 1.584-2.496 3.2-3.624 4.888H336V200.648l13-10.4-10-12.504-40 32 10 12.504 11-8.8v124.024c-2.512-.896-5.184-1.472-8-1.472v-24c0-22.056-17.944-40-40-40h-32v-16h40c13.232 0 24-10.768 24-24s-10.768-24-24-24h-36.688l-16-16H240v-40c0-22.056-17.944-40-40-40s-40 17.944-40 40v56h-16v-64h-16V92.688l-18.344-18.344-11.312 11.312L112 99.312V144H96v64H80v128.472c-4.112.456-8.104 1.288-11.976 2.408l-6.312-15.248-14.784 6.128 6.312 15.232a72.994 72.994 0 00-10.128 6.808l-11.68-11.68-11.312 11.312 11.68 11.68c-2.536 3.176-4.832 6.552-6.808 10.128L9.76 366.928l-6.128 14.784 15.248 6.312c-1.12 3.872-1.952 7.864-2.408 11.976H0v16h16.472c.456 4.112 1.288 8.104 2.408 11.976l-15.248 6.312 6.128 14.784 15.232-6.312a72.994 72.994 0 006.808 10.128l-11.68 11.68 11.312 11.312 11.68-11.68c3.176 2.536 6.552 4.832 10.128 6.808l-6.312 15.232 14.784 6.128 6.312-15.248c3.872 1.12 7.864 1.952 11.976 2.408V496h16v-16.472c4.112-.456 8.104-1.288 11.976-2.408l6.312 15.248 14.784-6.128-6.312-15.232a72.994 72.994 0 0010.128-6.808l11.68 11.68 11.312-11.312-11.68-11.68c2.536-3.176 4.832-6.552 6.808-10.128l15.232 6.312 6.128-14.784-15.248-6.312c1.12-3.872 1.952-7.864 2.408-11.976h176.944c.456 4.112 1.288 8.104 2.408 11.976l-15.248 6.312 6.128 14.784 15.232-6.312a72.994 72.994 0 006.808 10.128l-11.68 11.68 11.312 11.312 11.68-11.68c3.176 2.536 6.552 4.832 10.128 6.808l-6.312 15.232 14.784 6.128 6.312-15.248c3.872 1.12 7.864 1.952 11.976 2.408V496h16v-16.472c4.112-.456 8.104-1.288 11.976-2.408l6.312 15.248 14.784-6.128-6.312-15.232a72.994 72.994 0 0010.128-6.808l11.68 11.68 11.312-11.312-11.68-11.68c2.536-3.176 4.832-6.552 6.808-10.128l15.232 6.312 6.128-14.784-15.248-6.312c1.12-3.872 1.952-7.864 2.408-11.976H496v-16h-16.472c-.456-4.112-1.288-8.104-2.408-11.976l15.248-6.312-6.128-14.784-15.232 6.312a72.994 72.994 0 00-6.808-10.128l11.68-11.68-11.312-11.312-11.68 11.68c-3.176-2.536-6.552-4.832-10.128-6.808l6.312-15.232-14.784-6.128-6.312 15.248c-3.872-1.12-7.864-1.952-11.976-2.408V119.704c51.064-2.96 77.008-33.232 78.144-34.584zM312 352c4.416 0 8 3.584 8 8v8h-40v-32h16v16h16zm-48-128h16c4.416 0 8 3.584 8 8s-3.584 8-8 8h-16v-16zm-56-94.528A23.976 23.976 0 01222.528 144H208v-14.528zM176 152c0-10.416 6.712-19.216 16-22.528V160h32v16h-48v-24zm0 40h28.688l32 32H248v16h-13.336L204.8 217.6l-9.6 12.8L224 252v4h-48v-64zm0 80h48v16h48c13.232 0 24 10.768 24 24v8h-17.472c-3.312-9.288-12.112-16-22.528-16h-80v-32zm0 48h80c4.416 0 8 3.584 8 8v40h-88v-48zm-64-160h16v48h-16v-48zM88 464c-30.872 0-56-25.128-56-56s25.128-56 56-56 56 25.128 56 56-25.128 56-56 56zm59.824-96c-1.136-1.688-2.36-3.304-3.624-4.888l11.68-11.68-11.312-11.312-11.68 11.68c-3.176-2.536-6.552-4.832-10.128-6.808l6.312-15.232-14.784-6.128-6.312 15.248c-3.872-1.12-7.864-1.952-11.976-2.408V288h48v-16H96v-16h48v-16H96v-16h64v144h-12.176zm188.648 32H159.528c-.616-5.56-1.92-10.896-3.728-16h184.4c-1.816 5.104-3.112 10.44-3.728 16zM464 408c0 30.872-25.128 56-56 56s-56-25.128-56-56 25.128-56 56-56 56 25.128 56 56zm-56-304c-8.816 0-16.776-.96-24-2.472V88h-16v8.896c-17.312-6.584-27.944-15.952-32-20.032V72h144v4.84c-4.048 4.024-14.728 13.384-32 19.984V88h-16v13.504A115.482 115.482 0 01408 104zM0 64h64v16H0zM80 64h16v16H80zM0 32h48v16H0z"/>
</svg>
