<svg class="icon robot" xmlns="http://www.w3.org/2000/svg" viewBox="0 0 511.999 511.999" aria-label="robot" fill="currentColor">
  <path d="M80 359.998c-30.878 0-56 25.122-56 56.001C24 446.878 49.122 472 80 472c30.879 0 56.001-25.121 56.001-56.001S110.879 359.998 80 359.998zm0 96.001c-22.055 0-39.998-17.943-39.998-39.999-.001-22.057 17.943-40 39.998-40 22.056 0 39.999 17.943 39.999 39.999 0 22.057-17.943 40-39.999 40zM256 359.998c-30.879 0-56.001 25.122-56.001 56.001C199.999 446.878 225.121 472 256 472c30.879 0 56.001-25.121 56.001-56.001S286.879 359.998 256 359.998zm0 96.001c-22.057 0-40-17.943-40-39.999 0-22.057 17.943-40 40-40 22.056 0 39.999 17.943 39.999 39.999 0 22.057-17.942 40-39.999 40zM432 359.998c-30.879 0-56.001 25.122-56.001 56.001C375.999 446.878 401.12 472 432 472c30.878 0 56-25.121 56-56.001s-25.123-56.001-56-56.001zm0 96.001c-22.056 0-39.999-17.943-39.999-39.999 0-22.057 17.943-40 39.999-40 22.055 0 39.998 17.943 39.998 39.999.001 22.057-17.943 40-39.998 40z"/>
  <path d="M88 391.998H72v16H56.001v16.001H72v16h16v-16h16v-16.001H88zM264.001 391.998h-16.002v16h-16v16.001h16v16h16.002v-16H280v-16.001h-15.999zM440 391.998h-16.001v16H408v16.001h15.999v16H440v-16h15.999v-16.001H440zM96.005 303.998h31.999v16.001H96.005zM143.997 303.998h32v16.001h-32zM192 303.998h32v16.001h-32zM240.002 303.998h31.999v16.001h-31.999zM287.995 303.998h32v16.001h-32zM335.997 303.998h32v16.001h-32zM384 303.998h31.999v16.001H384zM247.999 136h136v-24h23.999v16H424V24h-16.001v72H384V72H248c-17.645 0-31.999 14.356-31.999 32-.001 17.644 14.354 32 31.998 32zM296 87.999h72v31.999h-72V87.999zm-31.999 0H280v31.999h-15.999V87.999zm-16.002 0v31.999c-8.823 0-15.999-7.177-15.999-16s7.177-15.999 15.999-15.999zM32 152c0-8.823 7.177-16 16-16s16 7.177 16 16v31.999h16V152c0-14.883-10.214-27.426-24-30.987v-9.012H39.999v9.012c-13.786 3.562-24 16.104-24 30.987v31.999H32V152z"/>
  <path d="M39.999 62.625V104H56V62.625A24.115 24.115 0 0070.624 48h74.752A24.115 24.115 0 00160 62.625v153.374h-16V232h48v-16.001h-16V62.625c9.312-3.304 16.001-12.195 16.001-22.625 0-13.233-10.767-24-24.001-24-10.429 0-19.321 6.689-22.624 16H70.624C67.32 22.689 58.429 16 48 16c-13.233 0-24 10.767-24 24 0 10.429 6.689 19.321 15.999 22.625zM168 32c4.411 0 8 3.589 8 7.999 0 4.411-3.589 8-8 8-4.41 0-7.999-3.589-7.999-8S163.589 32 168 32zM48 32c4.411 0 8 3.588 8 7.999s-3.589 8-7.999 8-7.999-3.589-7.999-8C40 35.588 43.589 32 48 32z"/>
  <path d="M472 346.762v-66.763h-20.688L411.314 240H368v-80h16v-16.001h-48V160h16v79.999H100.686l-39.998 39.999H39.999v66.763C16.113 360.616 0 386.453 0 415.999 0 460.111 35.887 496 80 496c41.412 0 75.573-31.632 79.599-72.001h16.802C180.428 464.368 214.588 496 255.999 496c41.412 0 75.571-31.632 79.598-72.001H352.4C356.427 464.368 390.588 496 431.999 496c44.112 0 80-35.888 80-80.001.001-29.546-16.112-55.383-39.999-69.237zm-364.687-90.763H216v16h16.001v-16h15.998v16H264v-16h16v16h16.001v-16h108.687l24 23.999H83.313l24-23.999zM80 479.998c-35.289 0-63.999-28.71-63.999-64C16.001 380.709 44.71 352 80 352s64 28.709 64 63.999c-.001 35.289-28.711 63.999-64 63.999zm176 0c-35.289 0-63.999-28.71-63.999-64C192.001 380.709 220.71 352 256 352c35.289 0 63.999 28.709 63.999 63.999-.001 35.289-28.71 63.999-63.999 63.999zm79.598-72c-4.027-40.369-38.187-72-79.598-72-41.412 0-75.572 31.63-79.598 72H159.6c-4.027-40.369-38.188-72-79.599-72a79.74 79.74 0 00-23.999 3.682V320H80v-16.001H56.001V296H456v7.999h-24V320h23.999v19.681A79.74 79.74 0 00432 335.999c-41.412 0-75.573 31.63-79.599 72h-16.803zm96.402 72c-35.289 0-64-28.71-64-64s28.71-63.999 64-63.999 63.999 28.709 63.999 63.999-28.709 64-63.999 64z"/>
</svg>
