<svg xmlns="http://www.w3.org/2000/svg" viewBox="0 0 512 512">
  <title>Apollo Elements</title>
  <g fill="none" fill-rule="evenodd">
    <path fill="#FFF" d="M288.5,18.7638837 L445.202503,109.236116 C465.313573,120.847248 477.702503,142.305504 477.702503,165.527767 L477.702503,346.472233 C477.702503,369.694496 465.313573,391.152752 445.202503,402.763884 L288.5,493.236116 C268.38893,504.847248 243.61107,504.847248 223.5,493.236116 L66.7974966,402.763884 C46.6864266,391.152752 34.2974966,369.694496 34.2974966,346.472233 L34.2974966,165.527767 C34.2974966,142.305504 46.6864266,120.847248 66.7974966,109.236116 L223.5,18.7638837 C243.61107,7.15275208 268.38893,7.15275208 288.5,18.7638837 Z"/>
    <g fill="#000" fill-rule="nonzero" transform="translate(67 122.5)">
      <polygon points="0 133.396 45.196 .5 101 .5 51.691 132.999 88.733 266.477 39.336 266.5"/>
      <polygon points="277 134.004 322.196 .5 378 .5 328.691 134.004 365.733 266.477 316.336 266.5" transform="rotate(180 327.5 133.5)"/>
      <polygon points="158.486 .5 220.463 .5 310 266.442 253.912 266.442 189.487 57.087 153.31 171.604 208.991 171.604 224.287 221.446 139.722 221.446 125.088 266.5 69 266.5"/>
    </g>
  </g>
</svg>
