<svg id="atomico-logo" xmlns="http://www.w3.org/2000/svg" viewBox="0 0 260 260">
  <style>
    #atomico-logo { fill: black; }
    @media (prefers-color-scheme: dark) {
      #atomico-logo { fill: white; }
    }
  </style>
  <path d="M193.382 197.305a31.088 31.088 0 01-3.184 2.777h-28.38a72.383 72.383 0 005.308-3.846h27.275c-.333.367-.676.726-1.02 1.07zm3.775-4.58h-25.942a72.872 72.872 0 003.859-3.846h24.29a30.854 30.854 0 01-2.208 3.846zm-12.85 10.87a30.547 30.547 0 01-12.697 2.732 30.561 30.561 0 01-12.7-2.733h25.397zm16.49-18.224h-22.653a72.637 72.637 0 002.94-3.848h20.737a30.678 30.678 0 01-1.02 3.85zm1.507-7.357h-18.871a72.4 72.4 0 002.249-3.846h16.688a31.764 31.764 0 01-.069 3.846zm-.283-7.354h-14.55a71.434 71.434 0 001.688-3.846h11.994a30.713 30.713 0 01.872 3.842zm-2.141-7.357h-9.406c.436-1.261.84-2.553 1.207-3.845h6.199a30.8 30.8 0 012.004 3.842zm-4.508-7.356h-2.79a71.48 71.48 0 00.522-2.465 31.094 31.094 0 012.268 2.464z" data-name="Trazado 8"/>
  <path d="M170.63 187.635a68.963 68.963 0 01-10.742 8.775 68.11 68.11 0 01-11.907 6.265 68.465 68.465 0 01-12.686 3.76 68.952 68.952 0 01-13.075 1.254 68.949 68.949 0 01-13.075-1.254 68.46 68.46 0 01-12.686-3.76 68.122 68.122 0 01-11.907-6.265 68.977 68.977 0 01-10.741-8.774 68.976 68.976 0 01-8.775-10.742 68.121 68.121 0 01-6.265-11.907 68.462 68.462 0 01-3.76-12.685 68.953 68.953 0 01-1.252-13.075 68.955 68.955 0 011.253-13.075 68.47 68.47 0 013.76-12.686 68.116 68.116 0 016.266-11.907 68.965 68.965 0 018.774-10.742 68.751 68.751 0 0113.001-10.202 68.093 68.093 0 0114.564-6.613 68.669 68.669 0 0115.46-3.024 68.938 68.938 0 0115.697.566 43.4 43.4 0 008.692 48.682 43.4 43.4 0 0048.682 8.692 68.937 68.937 0 01.565 15.689 68.67 68.67 0 01-3.023 15.46 68.092 68.092 0 01-6.614 14.564 68.751 68.751 0 01-10.206 13.004z" data-name="Trazado 7"/>
  <path d="M185.126 125.49l22.486-22.486a38.414 38.414 0 01-8.824 13.662 38.415 38.415 0 01-13.662 8.824zm-8.321 2.107a38.8 38.8 0 01-7.127.316l40.356-40.356a38.8 38.8 0 01-.316 7.127zm-12.673-.352a38.535 38.535 0 01-5.361-1.45l49.144-49.144a38.536 38.536 0 011.45 5.36zm-9.734-3.291a38.263 38.263 0 01-4.31-2.5l53.487-53.488a38.263 38.263 0 012.5 4.31zm-7.846-5.18q-1.172-.999-2.282-2.108-.608-.608-1.183-1.235l54.465-54.465q.627.575 1.235 1.183 1.108 1.108 2.108 2.283zm-6.26-6.764a38.333 38.333 0 01-2.635-4.174l52.3-52.3a38.354 38.354 0 014.174 2.636zm-4.617-8.408a38.456 38.456 0 01-1.636-5.173l46.503-46.503a38.472 38.472 0 015.173 1.637zm-2.521-10.504a38.789 38.789 0 01-.055-6.755l35.365-35.364a38.764 38.764 0 016.755.054zm1.317-14.342a38.373 38.373 0 019.799-16.608 38.373 38.373 0 0116.607-9.797z" data-name="Trazado 6"/>
</svg>
