<svg xmlns="http://www.w3.org/2000/svg" fill="none" viewBox="0 0 274 223"><title>Twitter</title><path d="M85.98 223c-31.675 0-61.158-9.285-85.98-25.199 4.388.518 8.853.783 13.38.783 26.278 0 50.463-8.967 69.659-24.01-24.544-.453-45.258-16.669-52.395-38.953a56.014 56.014 0 0 0 10.552 1.006c5.116 0 10.071-.685 14.778-1.967-25.66-5.152-44.993-27.822-44.993-54.998 0-.236 0-.471.004-.705a55.865 55.865 0 0 0 25.406 7.015c-15.05-10.058-24.953-27.226-24.953-46.685 0-10.279 2.766-19.914 7.594-28.198 27.664 33.934 68.993 56.264 115.609 58.603a56.31 56.31 0 0 1-1.453-12.782c0-30.975 25.114-56.088 56.091-56.088 16.132 0 30.709 6.812 40.941 17.713a112.328 112.328 0 0 0 35.617-13.611c-4.188 13.097-13.081 24.089-24.662 31.031a112.148 112.148 0 0 0 32.215-8.832 114 114 0 0 1-27.988 29.035c.108 2.405.162 4.824.162 7.256C245.564 137.533 189.148 223 85.98 223" fill="currentColor"/></svg>
