<svg width="170" height="170" xmlns="http://www.w3.org/2000/svg"><g fill-rule="nonzero" fill="none"><path fill="#F7DF1E" d="M0 0h170v170H0z"/><path d="M121.23 156c18.023-7.236 19.167-27.106 19.167-27.106s-2.579 4.138-7.676 5.293c4.724-4.705 5.43-15.734 4.134-14.311-1.034 1.136-5.709 8.821-9.646 9.997 0 0 2.363-16.66 0-19.992 0 0-4.527 5.488-7.282 18.816-4.572-.664-6.89-9.015-6.89-9.015-4.33 4.703.591 20.385.591 20.385s-6.496 0-10.236-17.446c-8.7 15.289 1.901 28.952 9.054 33.379h-6.713c-3.305 0-5.897-.476-7.777-1.428-2.037-1.305-13.302-9.34-12.87-27.246.199-9.018 5.746-16.45-7.086-22.933 4.724-4.51 14.763 4.116 14.763 4.116s2.95-17.7-6.495-24.307c-2.26-1.582 7.873-1.371 15.747 8.429-.033.118 7.264-10.35-5.316-27.052 8.071-1.176 15.157 9.997 15.157 9.996 5.708-1.372-7.676-18.815 3.74-30.575 2.574 17.25 6.889 20.972 6.889 20.972s7.77 8.381 9.055 17.054c.168 1.13.59-3.332.59-3.332s.985-3.334-3.345-12.154c16.802 5.315 12.2 32.057 13.386 34.498 5.905-3.332 4.329-13.72 4.329-13.72s6.692 3.528 6.692 12.939c0 4.088-3.74 13.522-2.166 13.327 0 0 2.56-.392 3.545-4.509 3.733 4.492 3.346 15.683 3.346 15.683-1.197 19.226-16.62 27.075-20.675 28.814-4.28.952-7.69 1.428-10.225 1.428h-5.787 0z" stroke="#000" stroke-width=".512" fill="#000"/></g></svg>