<?xml version="1.0" encoding="iso-8859-1"?>
<!-- Generator: Adobe Illustrator 19.0.0, SVG Export Plug-In . SVG Version: 6.00 Build 0)  -->
<svg version="1.1" id="Layer_1" xmlns="http://www.w3.org/2000/svg" xmlns:xlink="http://www.w3.org/1999/xlink" x="0px" y="0px"
	 viewBox="0 0 512 512" style="enable-background:new 0 0 512 512;" xml:space="preserve">
<g>
	<g>
		<g>
			<rect x="51.1" y="338.883" width="409.81" height="15.507"/>
			<path d="M153.676,244.052h204.648V118.214H153.676V244.052z M169.183,133.72h173.634v94.825H169.183V133.72z"/>
			
				<rect x="193.071" y="154.222" transform="matrix(0.7071 0.7071 -0.7071 0.7071 175.753 -93.5696)" width="15.507" height="22.29"/>
			
				<rect x="187.773" y="173.375" transform="matrix(0.7071 -0.7071 0.7071 0.7071 -60.0217 217.3505)" width="89.162" height="15.507"/>
			
				<rect x="256.129" y="185.749" transform="matrix(-0.7071 -0.7071 0.7071 -0.7071 311.2517 522.7122)" width="15.507" height="22.29"/>
			
				<rect x="280.995" y="165.496" transform="matrix(0.7071 -0.7071 0.7071 0.7071 -33.6758 265.1971)" width="44.576" height="15.506"/>
			
				<rect x="303.41" y="193.636" transform="matrix(-0.7071 -0.7071 0.7071 -0.7071 386.3853 569.6082)" width="15.507" height="22.29"/>
			<rect x="216.597" y="267.945" width="15.762" height="15.507"/>
			<rect x="248.117" y="267.945" width="15.762" height="15.507"/>
			<rect x="279.647" y="267.945" width="15.762" height="15.507"/>
			<path d="M508.113,496.041l-17.955,0.173l-34.471-110.306h36.704v-78.554H468.67L411.895,63.047h-23.756
				c-14.756-18.184-33.284-33.337-54.025-44.082C310.166,6.558,283.158,0,256.01,0c-27.154,0-54.167,6.56-78.118,18.972
				c-20.734,10.745-39.258,25.894-54.012,44.075h-23.775L50.969,274.479V165.37H35.463v141.983H19.61v78.554h36.704L21.843,496.213
				l-17.956-0.173l-0.15,15.506L51.022,512l0.15-15.506l-13.132-0.126l34.52-110.461h51.715
				c15.157,19.676,34.671,36.029,56.67,47.429c23.951,12.412,50.964,18.972,78.118,18.972c27.149,0,54.156-6.558,78.104-18.965
				c22.004-11.399,41.523-27.757,56.683-47.437h45.591l34.52,110.461l-13.132,0.126l0.15,15.506l47.285-0.454L508.113,496.041z
				 M412.399,133.72l22.036,94.825h-36.706V133.72H412.399z M185.026,32.74c22.067-11.435,45.949-17.233,70.984-17.233
				c25.029,0,48.908,5.795,70.971,17.227c15.006,7.774,28.735,18.093,40.483,30.313H144.555
				C156.3,50.83,170.024,40.513,185.026,32.74z M99.601,133.72h14.67v94.825H77.564L99.601,133.72z M73.961,244.052h55.818V118.214
				h-26.573l9.217-39.66h18.654l0.255,0.187c0.045-0.063,0.095-0.124,0.142-0.187h249.075c0.04,0.055,0.083,0.107,0.123,0.163
				l0.222-0.163h18.686l9.217,39.66h-26.573v125.839h55.818l14.711,63.301H59.25L73.961,244.052z M330.033,419.575
				c-22.063,11.43-45.941,17.227-70.971,17.227c-25.035,0-48.917-5.797-70.984-17.233c-16.355-8.476-31.194-19.972-43.601-33.662
				h229.169C361.237,399.602,346.393,411.099,330.033,419.575z M35.116,370.4v-47.54h441.768v47.54H35.116z"/>
			<polygon points="263.754,496.193 263.754,456.963 248.247,456.963 248.247,496.341 232.283,496.494 232.432,512 279.717,511.546 
				279.569,496.041 			"/>
			<rect x="35.459" y="141.731" width="15.507" height="15.762"/>
		</g>
	</g>
</g>
<g>
</g>
<g>
</g>
<g>
</g>
<g>
</g>
<g>
</g>
<g>
</g>
<g>
</g>
<g>
</g>
<g>
</g>
<g>
</g>
<g>
</g>
<g>
</g>
<g>
</g>
<g>
</g>
<g>
</g>
</svg>
