<svg class="icon moon-buggy" xmlns="http://www.w3.org/2000/svg" viewBox="0 0 496 496" aria-label="moon buggy">
  <path d="M56 416c-13.232 0-24 10.768-24 24s10.768 24 24 24 24-10.768 24-24-10.768-24-24-24zm0 32c-4.416 0-8-3.584-8-8s3.584-8 8-8 8 3.584 8 8-3.584 8-8 8zM168 416c-13.232 0-24 10.768-24 24s10.768 24 24 24 24-10.768 24-24-10.768-24-24-24zm0 32c-4.416 0-8-3.584-8-8s3.584-8 8-8 8 3.584 8 8-3.584 8-8 8zM280 416c-13.232 0-24 10.768-24 24s10.768 24 24 24 24-10.768 24-24-10.768-24-24-24zm0 32c-4.416 0-8-3.584-8-8s3.584-8 8-8 8 3.584 8 8-3.584 8-8 8z"/>
  <path d="M416 389.48v-22.44c49.408-30.472 80-84.912 80-143.04 0-92.632-75.368-168-168-168H112V24H96v32H80V0H64v56H52L0 125.336v125.328L40 304H0v88h27.304C10.984 401.8 0 419.616 0 440c0 30.872 25.128 56 56 56s56-25.128 56-56c0-20.384-10.984-38.2-27.304-48h54.616C122.984 401.8 112 419.616 112 440c0 30.872 25.128 56 56 56s56-25.128 56-56c0-20.384-10.984-38.2-27.304-48h54.616C234.984 401.8 224 419.616 224 440c0 30.872 25.128 56 56 56s56-25.128 56-56c0-20.384-10.984-38.2-27.304-48H328c13.552 0 26.952-1.688 40-4.872v2.352c-18.888 9.008-32 28.24-32 50.52 0 30.872 25.128 56 56 56s56-25.128 56-56c0-22.28-13.112-41.504-32-50.52zm0-41.624v-32.872c9.72 2.392 19.76 3.904 30.056 4.512A151.986 151.986 0 01416 347.856zM304 72h24c83.816 0 152 68.184 152 152 0 28.648-8.264 56.28-22.96 80H456c-83.816 0-152-68.184-152-152V72zM24 256h24v-16H16V136h32v-16H24l36-48h228v48H64v16h224v16c0 32.288 9.312 62.368 25.168 88H64v16h260.312c16.12 20.368 36.848 36.84 60.6 48H352v-16h-16v16h-16v-16h-16v16h-16v-16h-16v16h-16v-16h-16v16h-16v-16h-16v16h-16v-16h-16v16h-16v-16h-16v16h-16v-16h-16v16H96v-16H80v16H64v-16H48v.008L24 256zm72 184c0 22.056-17.944 40-40 40s-40-17.944-40-40 17.944-40 40-40 40 17.944 40 40zm-48-55.36V352h16v32.64c-2.624-.376-5.28-.64-8-.64-2.72 0-5.376.264-8 .64zM208 440c0 22.056-17.944 40-40 40s-40-17.944-40-40 17.944-40 40-40 40 17.944 40 40zm-48-55.36V352h16v32.64c-2.624-.376-5.28-.64-8-.64-2.72 0-5.376.264-8 .64zM320 440c0 22.056-17.944 40-40 40s-40-17.944-40-40 17.944-40 40-40 40 17.944 40 40zm-48-55.36V352h16v32.64c-2.624-.376-5.28-.64-8-.64-2.72 0-5.376.264-8 .64zm56-8.64h-24v-40h-48v40h-64v-40h-48v40H80v-40H32v40H16v-56h384v16h-32v34.568c-12.992 3.536-26.408 5.432-40 5.432zm72-24v32.64c-2.624-.376-5.28-.64-8-.64-2.72 0-5.376.264-8 .64V352h16zm-8 128c-22.056 0-40-17.944-40-40s17.944-40 40-40 40 17.944 40 40-17.944 40-40 40z"/>
  <path d="M392 416c-13.232 0-24 10.768-24 24s10.768 24 24 24 24-10.768 24-24-10.768-24-24-24zm0 32c-4.416 0-8-3.584-8-8s3.584-8 8-8 8 3.584 8 8-3.584 8-8 8zM448 224h16c0-74.992-61.008-136-136-136v16c66.168 0 120 53.832 120 120z"/>
</svg>
