<?xml version="1.0" encoding="iso-8859-1"?>
<!-- Generator: Adobe Illustrator 19.0.0, SVG Export Plug-In . SVG Version: 6.00 Build 0)  -->
<svg version="1.1" id="Layer_1" xmlns="http://www.w3.org/2000/svg" xmlns:xlink="http://www.w3.org/1999/xlink" x="0px" y="0px"
	 viewBox="0 0 496 496" style="enable-background:new 0 0 496 496;" xml:space="preserve">
<g>
	<g>
		<g>
			<path d="M56,416c-13.232,0-24,10.768-24,24s10.768,24,24,24s24-10.768,24-24S69.232,416,56,416z M56,448c-4.416,0-8-3.584-8-8
				c0-4.416,3.584-8,8-8s8,3.584,8,8C64,444.416,60.416,448,56,448z"/>
			<path d="M168,416c-13.232,0-24,10.768-24,24s10.768,24,24,24s24-10.768,24-24S181.232,416,168,416z M168,448
				c-4.416,0-8-3.584-8-8c0-4.416,3.584-8,8-8s8,3.584,8,8C176,444.416,172.416,448,168,448z"/>
			<path d="M280,416c-13.232,0-24,10.768-24,24s10.768,24,24,24s24-10.768,24-24S293.232,416,280,416z M280,448
				c-4.416,0-8-3.584-8-8c0-4.416,3.584-8,8-8c4.416,0,8,3.584,8,8C288,444.416,284.416,448,280,448z"/>
			<path d="M416,389.48v-22.44c49.408-30.472,80-84.912,80-143.04c0-92.632-75.368-168-168-168H112V24H96v32H80V0H64v56H52
				L0,125.336v125.328L40,304H0v88h27.304C10.984,401.8,0,419.616,0,440c0,30.872,25.128,56,56,56s56-25.128,56-56
				c0-20.384-10.984-38.2-27.304-48h54.616C122.984,401.8,112,419.616,112,440c0,30.872,25.128,56,56,56s56-25.128,56-56
				c0-20.384-10.984-38.2-27.304-48h54.616C234.984,401.8,224,419.616,224,440c0,30.872,25.128,56,56,56s56-25.128,56-56
				c0-20.384-10.984-38.2-27.304-48H328c13.552,0,26.952-1.688,40-4.872v2.352c-18.888,9.008-32,28.24-32,50.52
				c0,30.872,25.128,56,56,56s56-25.128,56-56C448,417.72,434.888,398.496,416,389.48z M416,347.856V344v-8v-21.016
				c9.72,2.392,19.76,3.904,30.056,4.512C437.44,330.184,427.36,339.752,416,347.856z M304,72h24c83.816,0,152,68.184,152,152
				c0,28.648-8.264,56.28-22.96,80H456c-83.816,0-152-68.184-152-152V72z M24,256h24v-16H16V136h32v-16H24l36-48h228v48H64v16h224
				v16c0,32.288,9.312,62.368,25.168,88H64v16h260.312c16.12,20.368,36.848,36.84,60.6,48H352v-16h-16v16h-16v-16h-16v16h-16v-16
				h-16v16h-16v-16h-16v16h-16v-16h-16v16h-16v-16h-16v16h-16v-16h-16v16h-16v-16h-16v16H96v-16H80v16H64v-16H48v0.008L24,256z
				 M96,440c0,22.056-17.944,40-40,40c-22.056,0-40-17.944-40-40c0-22.056,17.944-40,40-40C78.056,400,96,417.944,96,440z
				 M48,384.64V352h16v32.64c-2.624-0.376-5.28-0.64-8-0.64C53.28,384,50.624,384.264,48,384.64z M208,440c0,22.056-17.944,40-40,40
				c-22.056,0-40-17.944-40-40c0-22.056,17.944-40,40-40C190.056,400,208,417.944,208,440z M160,384.64V352h16v32.64
				c-2.624-0.376-5.28-0.64-8-0.64C165.28,384,162.624,384.264,160,384.64z M320,440c0,22.056-17.944,40-40,40
				c-22.056,0-40-17.944-40-40c0-22.056,17.944-40,40-40C302.056,400,320,417.944,320,440z M272,384.64V352h16v32.64
				c-2.624-0.376-5.28-0.64-8-0.64C277.28,384,274.624,384.264,272,384.64z M328,376h-24v-40h-48v40h-64v-40h-48v40H80v-40H32v40H16
				v-56h384v16h-32v34.568C355.008,374.104,341.592,376,328,376z M400,352v32.64c-2.624-0.376-5.28-0.64-8-0.64
				c-2.72,0-5.376,0.264-8,0.64V352H400z M392,480c-22.056,0-40-17.944-40-40c0-22.056,17.944-40,40-40c22.056,0,40,17.944,40,40
				C432,462.056,414.056,480,392,480z"/>
			<path d="M392,416c-13.232,0-24,10.768-24,24s10.768,24,24,24s24-10.768,24-24S405.232,416,392,416z M392,448
				c-4.416,0-8-3.584-8-8c0-4.416,3.584-8,8-8c4.416,0,8,3.584,8,8C400,444.416,396.416,448,392,448z"/>
			<path d="M448,224h16c0-74.992-61.008-136-136-136v16C394.168,104,448,157.832,448,224z"/>
		</g>
	</g>
</g>
<g>
</g>
<g>
</g>
<g>
</g>
<g>
</g>
<g>
</g>
<g>
</g>
<g>
</g>
<g>
</g>
<g>
</g>
<g>
</g>
<g>
</g>
<g>
</g>
<g>
</g>
<g>
</g>
<g>
</g>
</svg>
