<?xml version="1.0" encoding="iso-8859-1"?>
<!-- Generator: Adobe Illustrator 19.0.0, SVG Export Plug-In . SVG Version: 6.00 Build 0)  -->
<svg version="1.1" id="Layer_1" xmlns="http://www.w3.org/2000/svg" xmlns:xlink="http://www.w3.org/1999/xlink" x="0px" y="0px"
	 viewBox="0 0 496 496" style="enable-background:new 0 0 496 496;" xml:space="preserve">
<g>
	<g>
		<g>
			<path d="M88,376c-17.648,0-32,14.352-32,32s14.352,32,32,32s32-14.352,32-32S105.648,376,88,376z M88,424
				c-8.824,0-16-7.176-16-16c0-8.824,7.176-16,16-16s16,7.176,16,16C104,416.824,96.824,424,88,424z"/>
			<path d="M376,408c0,17.648,14.352,32,32,32s32-14.352,32-32s-14.352-32-32-32S376,390.352,376,408z M424,408
				c0,8.824-7.176,16-16,16c-8.824,0-16-7.176-16-16c0-8.824,7.176-16,16-16C416.824,392,424,399.176,424,408z"/>
			<path d="M494.144,85.12L496,82.896V56h-80V32h16V16h-16V0h-16v16h-16v16h16v24h-80v26.896l1.856,2.224
				c1.128,1.352,27.08,31.624,78.144,34.584v216.768c-4.112,0.456-8.104,1.288-11.976,2.408l-6.312-15.248l-14.784,6.128
				l6.312,15.232c-3.576,1.984-6.952,4.272-10.128,6.808l-11.68-11.68l-11.312,11.312l11.68,11.68
				c-1.264,1.584-2.496,3.2-3.624,4.888H336v-8V200.648l13-10.4l-10-12.504l-40,32l10,12.504l11-8.8v124.024
				c-2.512-0.896-5.184-1.472-8-1.472v-24c0-22.056-17.944-40-40-40h-32v-16h40c13.232,0,24-10.768,24-24s-10.768-24-24-24h-36.688
				l-16-16H240v-40c0-22.056-17.944-40-40-40c-22.056,0-40,17.944-40,40v56h-16v-64h-16V92.688l-18.344-18.344L98.344,85.656
				L112,99.312V144H96v64H80v128.472c-4.112,0.456-8.104,1.288-11.976,2.408l-6.312-15.248l-14.784,6.128l6.312,15.232
				c-3.576,1.984-6.952,4.272-10.128,6.808l-11.68-11.68L20.12,351.432l11.68,11.68c-2.536,3.176-4.832,6.552-6.808,10.128
				L9.76,366.928l-6.128,14.784l15.248,6.312c-1.12,3.872-1.952,7.864-2.408,11.976H0v16h16.472
				c0.456,4.112,1.288,8.104,2.408,11.976l-15.248,6.312l6.128,14.784l15.232-6.312c1.984,3.576,4.272,6.952,6.808,10.128
				l-11.68,11.68l11.312,11.312l11.68-11.68c3.176,2.536,6.552,4.832,10.128,6.808l-6.312,15.232l14.784,6.128l6.312-15.248
				c3.872,1.12,7.864,1.952,11.976,2.408V496h16v-16.472c4.112-0.456,8.104-1.288,11.976-2.408l6.312,15.248l14.784-6.128
				l-6.312-15.232c3.576-1.984,6.952-4.272,10.128-6.808l11.68,11.68l11.312-11.312l-11.68-11.68
				c2.536-3.176,4.832-6.552,6.808-10.128l15.232,6.312l6.128-14.784l-15.248-6.312c1.12-3.872,1.952-7.864,2.408-11.976h176.944
				c0.456,4.112,1.288,8.104,2.408,11.976l-15.248,6.312l6.128,14.784l15.232-6.312c1.984,3.576,4.272,6.952,6.808,10.128
				l-11.68,11.68l11.312,11.312l11.68-11.68c3.176,2.536,6.552,4.832,10.128,6.808l-6.312,15.232l14.784,6.128l6.312-15.248
				c3.872,1.12,7.864,1.952,11.976,2.408V496h16v-16.472c4.112-0.456,8.104-1.288,11.976-2.408l6.312,15.248l14.784-6.128
				l-6.312-15.232c3.576-1.984,6.952-4.272,10.128-6.808l11.68,11.68l11.312-11.312l-11.68-11.68
				c2.536-3.176,4.832-6.552,6.808-10.128l15.232,6.312l6.128-14.784l-15.248-6.312c1.12-3.872,1.952-7.864,2.408-11.976H496v-16
				h-16.472c-0.456-4.112-1.288-8.104-2.408-11.976l15.248-6.312l-6.128-14.784l-15.232,6.312
				c-1.984-3.576-4.272-6.952-6.808-10.128l11.68-11.68l-11.312-11.312l-11.68,11.68c-3.176-2.536-6.552-4.832-10.128-6.808
				l6.312-15.232l-14.784-6.128l-6.312,15.248c-3.872-1.12-7.864-1.952-11.976-2.408V119.704
				C467.064,116.744,493.008,86.472,494.144,85.12z M312,352c4.416,0,8,3.584,8,8v8h-40v-32h16v16H312z M264,224h16
				c4.416,0,8,3.584,8,8s-3.584,8-8,8h-16V224z M208,129.472c6.776,2.416,12.112,7.752,14.528,14.528H208V129.472z M176,152
				c0-10.416,6.712-19.216,16-22.528V160h32v16h-48V152z M176,192h28.688l32,32H248v16h-13.336L204.8,217.6l-9.6,12.8L224,252v4h-48
				V192z M176,272h48v16h48c13.232,0,24,10.768,24,24v8h-17.472c-3.312-9.288-12.112-16-22.528-16h-80V272z M176,320h80
				c4.416,0,8,3.584,8,8v40h-88V320z M112,160h16v48h-16V160z M88,464c-30.872,0-56-25.128-56-56s25.128-56,56-56s56,25.128,56,56
				S118.872,464,88,464z M147.824,368c-1.136-1.688-2.36-3.304-3.624-4.888l11.68-11.68l-11.312-11.312l-11.68,11.68
				c-3.176-2.536-6.552-4.832-10.128-6.808l6.312-15.232l-14.784-6.128l-6.312,15.248c-3.872-1.12-7.864-1.952-11.976-2.408V288h48
				v-16H96v-16h48v-16H96v-16h64v80v8v56H147.824z M336.472,400H159.528c-0.616-5.56-1.92-10.896-3.728-16h184.4
				C338.384,389.104,337.088,394.44,336.472,400z M464,408c0,30.872-25.128,56-56,56s-56-25.128-56-56s25.128-56,56-56
				S464,377.128,464,408z M408,104c-8.816,0-16.776-0.96-24-2.472V88h-16v8.896c-17.312-6.584-27.944-15.952-32-20.032V72h144v4.84
				c-4.048,4.024-14.728,13.384-32,19.984V88h-16v13.504C424.768,103.032,416.8,104,408,104z"/>
			<rect y="64" width="64" height="16"/>
			<rect x="80" y="64" width="16" height="16"/>
			<rect y="32" width="48" height="16"/>
		</g>
	</g>
</g>
<g>
</g>
<g>
</g>
<g>
</g>
<g>
</g>
<g>
</g>
<g>
</g>
<g>
</g>
<g>
</g>
<g>
</g>
<g>
</g>
<g>
</g>
<g>
</g>
<g>
</g>
<g>
</g>
<g>
</g>
</svg>
