<svg xmlns="http://www.w3.org/2000/svg" fill="currentColor" viewBox="0 0 60 60">
  <circle cx="22" cy="16.5" r="1"/>
  <circle cx="44" cy="19.5" r="1"/>
  <circle cx="40" cy="35.5" r="1"/>
  <circle cx="34" cy="8.5" r="1"/>
  <path d="M59 39.5h-3.96a26.485 26.485 0 001.674-9.286C56.714 15.483 44.73 3.5 30 3.5a26.57 26.57 0 00-16.231 5.517l-.024-.027-.748.619a26.54 26.54 0 00-2.76 2.649l-.004.004a27.12 27.12 0 00-.738.852l-.162.194c-.208.255-.411.514-.61.776-.077.102-.154.203-.229.306-.182.247-.36.497-.534.75-.08.116-.157.233-.235.35a25.72 25.72 0 00-.493.769c-.07.114-.137.229-.205.344-.16.27-.318.54-.469.815-.057.105-.111.212-.167.317-.12.227-.246.451-.359.681l-.43.87.026.014a26.544 26.544 0 00-2.34 10.913c0 3.192.564 6.309 1.674 9.286H1a1 1 0 100 2h58a1 1 0 100-1.999zM14 14a4.505 4.505 0 01-5.67 4.346c.05-.09.103-.178.154-.268a25.7 25.7 0 01.751-1.24c.082-.127.161-.257.246-.383.302-.45.624-.886.955-1.316a25.032 25.032 0 011.357-1.617 27.2 27.2 0 011.262-1.274c.134-.127.267-.255.404-.379.352.652.541 1.383.541 2.131zM7.103 39.5a24.504 24.504 0 01-1.816-9.286c0-3.583.773-6.987 2.15-10.063.664.223 1.36.349 2.063.349 3.584 0 6.5-2.916 6.5-6.5a6.47 6.47 0 00-.987-3.419A24.581 24.581 0 0130 5.5c13.627 0 24.714 11.087 24.714 24.714 0 2.11-.271 4.184-.797 6.202-.311.05-.619.084-.917.084-3.309 0-6-2.691-6-6a1 1 0 10-2 0c0 4.411 3.589 8 8 8 .093 0 .19-.015.284-.018-.122.341-.249.681-.386 1.018H7.103zM54 44.5H6a1 1 0 100 2h48a1 1 0 100-2zM49 49.5H11a1 1 0 100 2h38a1 1 0 100-2zM45 54.5H15a1 1 0 100 2h30a1 1 0 100-2z"/>
  <path d="M31 32.086V20.5h-2v11.586l-5.293-5.293-1.414 1.414L30 35.914l7.707-7.707-1.414-1.414zM14 27.5c-2.206 0-4 1.794-4 4a1 1 0 102 0c0-1.103.897-2 2-2s2 .897 2 2-.897 2-2 2a1 1 0 100 2c2.206 0 4-1.794 4-4s-1.794-4-4-4z"/>
</svg>
