<?xml version="1.0" encoding="iso-8859-1"?>
<!-- Generator: Adobe Illustrator 19.0.0, SVG Export Plug-In . SVG Version: 6.00 Build 0)  -->
<svg version="1.1" id="Layer_1" xmlns="http://www.w3.org/2000/svg" xmlns:xlink="http://www.w3.org/1999/xlink" x="0px" y="0px"
	 viewBox="0 0 511.999 511.999" style="enable-background:new 0 0 511.999 511.999;" xml:space="preserve">
<g>
	<g>
		<g>
			<path d="M80,359.998c-30.878,0-56,25.122-56,56.001c0,30.879,25.122,56.001,56,56.001c30.879,0,56.001-25.121,56.001-56.001
				S110.879,359.998,80,359.998z M80,455.999c-22.055,0-39.998-17.943-39.998-39.999C40.001,393.943,57.945,376,80,376
				c22.056,0,39.999,17.943,39.999,39.999C119.999,438.056,102.056,455.999,80,455.999z"/>
			<path d="M256,359.998c-30.879,0-56.001,25.122-56.001,56.001c0,30.879,25.122,56.001,56.001,56.001
				c30.879,0,56.001-25.121,56.001-56.001S286.879,359.998,256,359.998z M256,455.999C233.943,455.999,216,438.056,216,416
				C216,393.943,233.943,376,256,376c22.056,0,39.999,17.943,39.999,39.999C295.999,438.056,278.057,455.999,256,455.999z"/>
			<path d="M432,359.998c-30.879,0-56.001,25.122-56.001,56.001c0,30.879,25.121,56.001,56.001,56.001c30.878,0,56-25.121,56-56.001
				S462.877,359.998,432,359.998z M432,455.999c-22.056,0-39.999-17.943-39.999-39.999C392.001,393.943,409.944,376,432,376
				c22.055,0,39.998,17.943,39.998,39.999C471.999,438.056,454.055,455.999,432,455.999z"/>
			<polygon points="88,391.998 72,391.998 72,407.998 56.001,407.998 56.001,423.999 72,423.999 72,439.999 88,439.999 88,423.999 
				104,423.999 104,407.998 88,407.998 			"/>
			<polygon points="264.001,391.998 247.999,391.998 247.999,407.998 231.999,407.998 231.999,423.999 247.999,423.999 
				247.999,439.999 264.001,439.999 264.001,423.999 280,423.999 280,407.998 264.001,407.998 			"/>
			<polygon points="440,391.998 423.999,391.998 423.999,407.998 408,407.998 408,423.999 423.999,423.999 423.999,439.999 
				440,439.999 440,423.999 455.999,423.999 455.999,407.998 440,407.998 			"/>
			<rect x="96.005" y="303.998" width="31.999" height="16.001"/>
			<rect x="143.997" y="303.998" width="32" height="16.001"/>
			<rect x="192" y="303.998" width="32" height="16.001"/>
			<rect x="240.002" y="303.998" width="31.999" height="16.001"/>
			<rect x="287.995" y="303.998" width="32" height="16.001"/>
			<rect x="335.997" y="303.998" width="32" height="16.001"/>
			<rect x="384" y="303.998" width="31.999" height="16.001"/>
			<path d="M247.999,136h136v-24h23.999v16H424V24h-16.001v72H384v-24h-136c-17.645,0-31.999,14.356-31.999,32
				C216,121.644,230.355,136,247.999,136z M296,87.999h72v31.999h-72V87.999z M264.001,87.999H280v31.999h-15.999V87.999z
				 M247.999,87.999v31.999c-8.823,0-15.999-7.177-15.999-16S239.177,87.999,247.999,87.999z"/>
			<path d="M32,152c0-8.823,7.177-16,16-16s16,7.177,16,16v31.999h16V152c0-14.883-10.214-27.426-24-30.987v-9.012H39.999v9.012
				c-13.786,3.562-24,16.104-24,30.987v31.999H32V152z"/>
			<path d="M39.999,62.625v41.375h16.001V62.625C62.808,60.21,68.209,54.808,70.624,48h74.752
				c2.415,6.808,7.816,12.21,14.624,14.625v153.374h-16V232h48v-16.001h-16V62.625c9.312-3.304,16.001-12.195,16.001-22.625
				c0-13.233-10.767-24-24.001-24c-10.429,0-19.321,6.689-22.624,16H70.624C67.32,22.689,58.429,16,48,16c-13.233,0-24,10.767-24,24
				C24,50.429,30.689,59.321,39.999,62.625z M168,32c4.411,0,8,3.589,8,7.999c0,4.411-3.589,8-8,8c-4.41,0-7.999-3.589-7.999-8
				C160.001,35.588,163.589,32,168,32z M48,32C52.411,32,56,35.588,56,39.999c0,4.411-3.589,8-7.999,8s-7.999-3.589-7.999-8
				C40,35.588,43.589,32,48,32z"/>
			<path d="M472,346.762v-66.763h-20.688l-39.998-39.999H368V160h16v-16.001h-48V160h16v79.999H100.686l-39.998,39.999H39.999
				v66.763C16.113,360.616,0,386.453,0,415.999c0,44.112,35.887,80.001,80,80.001c41.412,0,75.573-31.632,79.599-72.001h16.802
				c4.027,40.369,38.187,72.001,79.598,72.001c41.412,0,75.571-31.632,79.598-72.001H352.4
				c4.027,40.369,38.188,72.001,79.599,72.001c44.112,0,80-35.888,80-80.001C512,386.453,495.887,360.616,472,346.762z
				 M107.313,255.999H216v16h16.001v-16h15.998v16h16.001v-16H280v16h16.001v-16h108.687l24,23.999H83.313L107.313,255.999z
				 M80,479.998c-35.289,0-63.999-28.71-63.999-64C16.001,380.709,44.71,352,80,352s64,28.709,64,63.999
				C143.999,451.288,115.289,479.998,80,479.998z M256,479.998c-35.289,0-63.999-28.71-63.999-64
				C192.001,380.709,220.71,352,256,352c35.289,0,63.999,28.709,63.999,63.999C319.998,451.288,291.289,479.998,256,479.998z
				 M335.598,407.998c-4.027-40.369-38.187-72-79.598-72c-41.412,0-75.572,31.63-79.598,72h-16.802
				c-4.027-40.369-38.188-72-79.599-72c-8.358,0-16.419,1.294-23.999,3.682V320H80v-16.001H56.001v-7.999h399.999v7.999H432V320
				h23.999v19.681c-7.58-2.388-15.641-3.682-23.999-3.682c-41.412,0-75.573,31.63-79.599,72H335.598z M432,479.998
				c-35.289,0-64-28.71-64-64c0-35.29,28.71-63.999,64-63.999c35.29,0,63.999,28.709,63.999,63.999S467.29,479.998,432,479.998z"/>
		</g>
	</g>
</g>
<g>
</g>
<g>
</g>
<g>
</g>
<g>
</g>
<g>
</g>
<g>
</g>
<g>
</g>
<g>
</g>
<g>
</g>
<g>
</g>
<g>
</g>
<g>
</g>
<g>
</g>
<g>
</g>
<g>
</g>
</svg>
