<svg class="icon rocket" xmlns="http://www.w3.org/2000/svg" viewBox="0 0 512 512" aria-label="Rocket" fill="currentColor">
  <path d="M509.051 12.6a10.81 10.81 0 00-9.649-9.649c-3.955-.405-97.571-9.75-159.711 7.073l-.007.001c-19.392 5.247-34.113 12.7-43.766 22.153-37.728 30.969-77.654 74.49-112.163 121.418-54.979-8.142-111 7.438-151.058 47.495a167.016 167.016 0 00-29.26 39.477 10.808 10.808 0 0013.355 15.203c28.725-10.851 66.919-4.869 105.09 14.363.058.062.112.127.173.187l31.772 31.77c-32.675 37.338-41.09 82.954-41.454 85.002a10.81 10.81 0 0012.531 12.532c2.048-.363 47.668-8.78 85.005-41.457l31.769 31.767c.055.055.115.1.171.155 19.244 38.182 25.23 76.386 14.377 105.118a10.81 10.81 0 0015.203 13.355 167.016 167.016 0 0039.477-29.26c34.228-34.227 51.806-80.924 49.501-131.49a194.558 194.558 0 00-1.903-19.65c46.882-34.484 90.358-74.375 121.306-112.08 9.457-9.654 16.909-24.379 22.154-43.778l.001-.003c16.834-62.142 7.491-155.748 7.086-159.702zM141.645 217.34c-6.008 10.259-11.567 20.426-16.604 30.35-6.504-3.029-13.053-5.741-19.63-8.088-20.125-7.183-39.401-10.787-57.208-10.787-3.987 0-7.902.181-11.735.543a145.49 145.49 0 0111.517-12.979c32.368-32.368 76.745-46.397 121.485-42.699-9.939 14.445-19.289 29.082-27.823 43.661l-.002-.001zm1.154 43.151a524.428 524.428 0 0110.549-20.025l33.323 33.323c-5.885 3.843-11.772 8.189-17.48 13.091l-26.392-26.389zm59.199 75.498c-20.808 20.807-46.822 32.08-63.637 37.65 5.571-16.819 16.843-42.83 37.65-63.637 20.807-20.807 46.821-32.079 63.637-37.65-5.571 16.819-16.843 42.83-37.65 63.637zm49.513 33.205l-26.389-26.387c4.902-5.707 9.247-11.593 13.089-17.478l33.318 33.318a521.158 521.158 0 01-20.018 10.547zm44.111 94.822a145.49 145.49 0 01-12.979 11.517c1.978-20.947-1.454-44.313-10.247-68.943-2.349-6.578-5.061-13.13-8.091-19.635 9.926-5.035 20.089-10.596 30.339-16.605l.002-.001c14.607-8.549 29.272-17.917 43.745-27.875.175 2.102.326 4.209.423 6.322 2.026 44.423-13.313 85.341-43.192 115.22zm174.336-270.208c-.118-.13-.228-.266-.353-.391l-29.897-29.897c-4.221-4.221-11.065-4.221-15.287 0-4.221 4.221-4.221 11.065 0 15.286l29.897 29.897a10.845 10.845 0 002.084 1.615c-41.794 48.514-103.757 99.884-165.512 137.118l-41.584-41.584c12.25-24.785 16.085-45.582 16.327-46.95a10.81 10.81 0 00-12.531-12.532c-1.368.243-22.165 4.077-46.95 16.327l-41.593-41.593c37.191-61.668 88.466-123.539 136.909-165.327.223.27.457.533.709.785l63.519 63.519a10.774 10.774 0 007.643 3.166c2.766 0 5.533-1.056 7.643-3.166 4.221-4.221 4.221-11.065 0-15.286l-62.771-62.771c5.569-3.563 12.642-6.706 21.179-9.395l69.995 69.995 69.979 69.979c-2.691 8.548-5.838 15.632-9.406 21.205zm15.233-45.952L364.139 26.804c45.772-7.881 102.569-4.745 124.166-3.104 1.644 21.593 4.784 78.362-3.114 124.156z"/>
  <path d="M394.713 133.812c-4.221 4.221-4.221 11.065 0 15.286l1.081 1.081c2.111 2.111 4.877 3.166 7.643 3.166s5.533-1.055 7.643-3.166c4.221-4.221 4.221-11.065 0-15.286l-1.081-1.081c-4.221-4.222-11.065-4.222-15.286 0zM320.269 132.282c-15.88 0-30.809 6.184-42.037 17.412-23.179 23.179-23.179 60.895 0 84.074 11.228 11.228 26.158 17.412 42.037 17.412 15.88 0 30.809-6.184 42.037-17.412 11.229-11.228 17.412-26.158 17.412-42.037 0-15.879-6.184-30.809-17.412-42.037-11.228-11.228-26.157-17.412-42.037-17.412zm26.751 86.201c-7.146 7.146-16.646 11.08-26.751 11.08s-19.605-3.936-26.751-11.08c-14.75-14.75-14.75-38.751 0-53.501 7.145-7.146 16.646-11.08 26.751-11.08s19.605 3.934 26.751 11.08c7.145 7.146 11.08 16.646 11.08 26.751.001 10.104-3.935 19.604-11.08 26.75zM10.809 420.282c2.766 0 5.533-1.055 7.643-3.166l74.471-74.471c4.221-4.221 4.221-11.065 0-15.286s-11.065-4.221-15.287 0L3.166 401.83c-4.221 4.221-4.221 11.065 0 15.286a10.779 10.779 0 007.643 3.166zM169.355 419.076l-74.472 74.472c-4.221 4.221-4.221 11.065 0 15.286a10.774 10.774 0 007.643 3.166c2.766 0 5.533-1.056 7.643-3.166l74.472-74.472c4.221-4.221 4.221-11.065 0-15.286-4.22-4.221-11.064-4.221-15.286 0zM95.031 416.969c-4.221-4.221-11.065-4.221-15.287 0L4.248 492.465c-4.221 4.221-4.221 11.065 0 15.286 2.111 2.111 4.877 3.166 7.643 3.166s5.533-1.055 7.643-3.166l75.495-75.496c4.222-4.22 4.222-11.065.002-15.286z"/>
</svg>
