<?xml version="1.0" encoding="iso-8859-1"?>
<!-- Generator: Adobe Illustrator 19.0.0, SVG Export Plug-In . SVG Version: 6.00 Build 0)  -->
<svg version="1.1" id="Capa_1" xmlns="http://www.w3.org/2000/svg" xmlns:xlink="http://www.w3.org/1999/xlink" x="0px" y="0px"
	 viewBox="0 0 511 511" style="enable-background:new 0 0 511 511;" xml:space="preserve">
<g>
	<path d="M127.5,367.995c-4.142,0-7.5,3.358-7.5,7.5c0,13.509-10.991,24.5-24.5,24.5S71,389.004,71,375.495s10.991-24.5,24.5-24.5
		c4.142,0,7.5-3.358,7.5-7.5s-3.358-7.5-7.5-7.5c-21.78,0-39.5,17.72-39.5,39.5s17.72,39.5,39.5,39.5s39.5-17.72,39.5-39.5
		C135,371.352,131.643,367.995,127.5,367.995z"/>
	<path d="M95.496,367.995c-1.97,0-3.9,0.8-5.3,2.2c-1.39,1.39-2.2,3.33-2.2,5.3s0.81,3.91,2.2,5.3c1.4,1.4,3.33,2.2,5.3,2.2
		c1.98,0,3.91-0.8,5.31-2.2c1.39-1.39,2.2-3.33,2.2-5.3s-0.81-3.91-2.2-5.3C99.406,368.794,97.476,367.995,95.496,367.995z"/>
	<path d="M479,315.935v-28.44c0-14.785-10.241-27.216-24-30.591v-9.409c0-8.547-6.953-15.5-15.5-15.5h-16
		c-0.169,0-0.333,0.02-0.5,0.025v-16.525c0-6.904-3.019-13.431-8.282-17.907c-5.26-4.474-12.227-6.397-19.111-5.276
		C384.43,194.13,376,204.466,376,216.352v26.152l-23.772,53.49H295.5c-12.702,0-23.083,10.156-23.466,22.782
		c-0.022,0.236-0.034,0.476-0.034,0.718v8.5h-17v-54.5c0-5.238-4.262-9.5-9.5-9.5H239v-1.873c0-2.271,0.884-4.405,2.489-6.01
		l2.281-2.281c4.216,3.526,9.481,5.448,15.043,5.448c6.277,0,12.179-2.444,16.617-6.883l5.657-5.657
		c1.407-1.406,2.197-3.314,2.197-5.303s-0.79-3.897-2.197-5.303l-33.941-33.941c-1.406-1.407-3.314-2.197-5.303-2.197
		s-3.897,0.79-5.303,2.197l-5.657,5.657c-4.438,4.438-6.883,10.34-6.883,16.617c0,6.277,2.445,12.179,6.883,16.617l2.211,2.211
		l-2.211,2.211c-4.438,4.438-6.883,10.34-6.883,16.617v1.873h-8.5c-4.142,0-7.5,3.358-7.5,7.5v16.5h-32.5
		c-8.547,0-15.5,6.953-15.5,15.5v24.5h-11.12c-6.122-6.872-13.543-12.558-21.88-16.667V196.749c0-10.551-4.109-20.47-11.569-27.931
		l-7.785-7.785l6.01-6.01c1.266-1.266,2.038-2.943,2.175-4.728l5.657-73.539c0.241-3.129-1.493-6.078-4.344-7.389
		s-6.218-0.708-8.437,1.511l-45.608,45.608L45.421,98.809l6.011-6.011c1.407-1.406,2.197-3.314,2.197-5.303
		c0-1.989-0.79-3.897-2.197-5.303L40.117,70.877c-9.163-9.162-24.072-9.162-33.234,0C2.445,75.316,0,81.218,0,87.495
		c0,6.277,2.445,12.179,6.883,16.617l11.314,11.314c1.464,1.464,3.384,2.197,5.303,2.197s3.839-0.732,5.303-2.197l6.01-6.01
		l17.678,17.677L6.883,172.701c-2.219,2.219-2.822,5.586-1.511,8.437c1.23,2.675,3.901,4.366,6.812,4.366
		c0.191,0,0.384-0.008,0.578-0.022l73.539-5.657c1.785-0.137,3.462-0.908,4.728-2.175l6.011-6.01l7.785,7.785
		c4.627,4.628,7.176,10.78,7.176,17.324v109.188c-2.937-0.697-5.937-1.227-9-1.548v-56.895c0-8.547-6.953-15.5-15.5-15.5h-16
		c-8.547,0-15.5,6.953-15.5,15.5v68.44c-19.27,12.822-32,34.729-32,59.56c0,39.425,32.075,71.5,71.5,71.5s71.5-32.075,71.5-71.5
		c0-2.878-0.191-5.71-0.523-8.5h202.046c-0.332,2.79-0.523,5.622-0.523,8.5c0,39.425,32.075,71.5,71.5,71.5s71.5-32.075,71.5-71.5
		C511,350.663,498.271,328.757,479,315.935z M241.49,218.455l0.354-0.354l23.335,23.334l-0.354,0.354
		c-1.605,1.605-3.74,2.49-6.011,2.49s-4.405-0.884-6.01-2.489c0,0,0,0,0,0l-11.314-11.314c-1.605-1.605-2.49-3.74-2.49-6.01
		C239,222.195,239.884,220.06,241.49,218.455z M17.49,93.505C15.884,91.9,15,89.765,15,87.495c0-2.27,0.884-4.405,2.49-6.01
		c1.657-1.657,3.833-2.486,6.011-2.486c2.176,0,4.354,0.829,6.01,2.486l6.011,6.01l-6.008,6.008
		c-0.001,0.001-0.002,0.001-0.002,0.001c-0.001,0.001-0.002,0.002-0.003,0.003L23.5,99.516L17.49,93.505z M104.977,95.82
		l-3.889,50.558l-4.049,4.049l-23.334-23.334L104.977,95.82z M82.384,165.082l-50.558,3.889l31.272-31.272l23.334,23.334
		L82.384,165.082z M464,287.495v20.826c-2.914-1.066-5.923-1.931-9-2.614v-32.89C460.335,275.553,464,281.098,464,287.495z
		 M423.5,246.995h16c0.276,0,0.5,0.224,0.5,0.5v8.5h-0.5c-4.142,0-7.5,3.358-7.5,7.5s3.358,7.5,7.5,7.5h0.5v33.013
		c-0.167-0.001-0.332-0.013-0.5-0.013c-5.68,0-11.199,0.686-16.5,1.943v-58.443C423,247.219,423.225,246.995,423.5,246.995z
		 M392.086,322.04L408,286.233v25.094C402.211,314.181,396.865,317.796,392.086,322.04z M287,320.086
		c0.015-0.194,0.023-0.391,0.023-0.589c0.001-4.688,3.804-8.502,8.477-8.502h61.602c2.964,0,5.65-1.746,6.854-4.454l26.398-59.398
		c0.426-0.959,0.646-1.997,0.646-3.046v-27.744c0-4.539,3.082-8.596,7.017-9.236c2.574-0.419,5.053,0.256,6.984,1.898
		c1.906,1.621,3,3.983,3,6.48v32c0,1.198-0.247,2.361-0.733,3.456l-31.999,71.998c-1.362,3.065-4.41,5.046-7.765,5.046H287V320.086z
		 M223,278.995h17v49h-17V278.995z M175,303.495c0-0.276,0.224-0.5,0.5-0.5H208v25h-33V303.495z M71.5,246.995h16
		c0.276,0,0.5,0.224,0.5,0.5v16.5H71v-16.5C71,247.219,71.225,246.995,71.5,246.995z M71,278.995h17v25.395
		c-5.908,0.619-11.606,1.957-17,3.93V278.995z M95.5,431.995c-31.154,0-56.5-25.346-56.5-56.5s25.346-56.5,56.5-56.5
		s56.5,25.346,56.5,56.5S126.655,431.995,95.5,431.995z M163.014,351.995c-1.083-3.104-2.376-6.107-3.859-9H215.5h32h128.346
		c-1.483,2.893-2.776,5.896-3.859,9H163.014z M439.5,431.995c-31.154,0-56.5-25.346-56.5-56.5s25.346-56.5,56.5-56.5
		s56.5,25.346,56.5,56.5S470.655,431.995,439.5,431.995z"/>
	<path d="M471.5,367.995c-4.142,0-7.5,3.358-7.5,7.5c0,13.509-10.991,24.5-24.5,24.5s-24.5-10.991-24.5-24.5s10.991-24.5,24.5-24.5
		c4.142,0,7.5-3.358,7.5-7.5s-3.358-7.5-7.5-7.5c-21.78,0-39.5,17.72-39.5,39.5s17.72,39.5,39.5,39.5s39.5-17.72,39.5-39.5
		C479,371.352,475.643,367.995,471.5,367.995z"/>
	<path d="M434.196,370.195c-1.39,1.39-2.19,3.33-2.19,5.3s0.8,3.91,2.19,5.3c1.4,1.4,3.33,2.2,5.3,2.2c1.98,0,3.91-0.8,5.31-2.2
		c1.39-1.39,2.19-3.32,2.19-5.3c0-1.97-0.8-3.91-2.19-5.3c-1.4-1.4-3.33-2.2-5.31-2.2
		C437.526,367.995,435.596,368.794,434.196,370.195z"/>
</g>
<g>
</g>
<g>
</g>
<g>
</g>
<g>
</g>
<g>
</g>
<g>
</g>
<g>
</g>
<g>
</g>
<g>
</g>
<g>
</g>
<g>
</g>
<g>
</g>
<g>
</g>
<g>
</g>
<g>
</g>
</svg>
