<svg class="icon rover" xmlns="http://www.w3.org/2000/svg" viewBox="0 0 511 511" aria-label="moon rover">
  <path d="M127.5 367.995a7.5 7.5 0 00-7.5 7.5c0 13.509-10.991 24.5-24.5 24.5S71 389.004 71 375.495s10.991-24.5 24.5-24.5a7.5 7.5 0 000-15c-21.78 0-39.5 17.72-39.5 39.5s17.72 39.5 39.5 39.5 39.5-17.72 39.5-39.5c0-4.143-3.357-7.5-7.5-7.5z"/>
  <path d="M95.496 367.995c-1.97 0-3.9.8-5.3 2.2-1.39 1.39-2.2 3.33-2.2 5.3s.81 3.91 2.2 5.3c1.4 1.4 3.33 2.2 5.3 2.2 1.98 0 3.91-.8 5.31-2.2 1.39-1.39 2.2-3.33 2.2-5.3s-.81-3.91-2.2-5.3a7.547 7.547 0 00-5.31-2.2z"/>
  <path d="M479 315.935v-28.44c0-14.785-10.241-27.216-24-30.591v-9.409c0-8.547-6.953-15.5-15.5-15.5h-16c-.169 0-.333.02-.5.025v-16.525a23.473 23.473 0 00-8.282-17.907c-5.26-4.474-12.227-6.397-19.111-5.276C384.43 194.13 376 204.466 376 216.352v26.152l-23.772 53.49H295.5c-12.702 0-23.083 10.156-23.466 22.782a7.741 7.741 0 00-.034.718v8.5h-17v-54.5c0-5.238-4.262-9.5-9.5-9.5H239v-1.873c0-2.271.884-4.405 2.489-6.01l2.281-2.281c4.216 3.526 9.481 5.448 15.043 5.448a23.344 23.344 0 0016.617-6.883l5.657-5.657a7.497 7.497 0 000-10.606l-33.941-33.941a7.497 7.497 0 00-10.606 0l-5.657 5.657A23.348 23.348 0 00224 224.465a23.348 23.348 0 006.883 16.617l2.211 2.211-2.211 2.211A23.348 23.348 0 00224 262.121v1.873h-8.5a7.5 7.5 0 00-7.5 7.5v16.5h-32.5c-8.547 0-15.5 6.953-15.5 15.5v24.5h-11.12A71.896 71.896 0 00127 311.327V196.749c0-10.551-4.109-20.47-11.569-27.931l-7.785-7.785 6.01-6.01a7.499 7.499 0 002.175-4.728l5.657-73.539a7.5 7.5 0 00-12.781-5.878l-45.608 45.608-17.678-17.677 6.011-6.011a7.497 7.497 0 000-10.606L40.117 70.877c-9.163-9.162-24.072-9.162-33.234 0A23.352 23.352 0 000 87.495a23.348 23.348 0 006.883 16.617l11.314 11.314c1.464 1.464 3.384 2.197 5.303 2.197s3.839-.732 5.303-2.197l6.01-6.01 17.678 17.677-45.608 45.608a7.501 7.501 0 005.879 12.781l73.539-5.657a7.494 7.494 0 004.728-2.175l6.011-6.01 7.785 7.785c4.627 4.628 7.176 10.78 7.176 17.324v109.188a71.002 71.002 0 00-9-1.548v-56.895c0-8.547-6.953-15.5-15.5-15.5h-16c-8.547 0-15.5 6.953-15.5 15.5v68.44c-19.27 12.822-32 34.729-32 59.56 0 39.425 32.075 71.5 71.5 71.5s71.5-32.075 71.5-71.5c0-2.878-.191-5.71-.523-8.5h202.046a71.842 71.842 0 00-.523 8.5c0 39.425 32.075 71.5 71.5 71.5s71.5-32.075 71.5-71.5c-.001-24.831-12.73-46.737-32.001-59.559zm-237.51-97.48l.354-.354 23.335 23.334-.354.354c-1.605 1.605-3.74 2.49-6.011 2.49s-4.405-.884-6.01-2.489l-11.314-11.314a8.446 8.446 0 01-2.49-6.01c0-2.271.884-4.406 2.49-6.011zm-224-124.95a8.441 8.441 0 01-2.49-6.01c0-2.27.884-4.405 2.49-6.01a8.473 8.473 0 016.011-2.486c2.176 0 4.354.829 6.01 2.486l6.011 6.01-6.008 6.008-.002.001-.003.003-6.009 6.009-6.01-6.011zm87.487 2.315l-3.889 50.558-4.049 4.049-23.334-23.334 31.272-31.273zm-22.593 69.262l-50.558 3.889 31.272-31.272 23.334 23.334-4.048 4.049zM464 287.495v20.826a70.921 70.921 0 00-9-2.614v-32.89c5.335 2.736 9 8.281 9 14.678zm-40.5-40.5h16a.5.5 0 01.5.5v8.5h-.5a7.5 7.5 0 000 15h.5v33.013c-.167-.001-.332-.013-.5-.013a71.41 71.41 0 00-16.5 1.943v-58.443a.5.5 0 01.5-.5zm-31.414 75.045L408 286.233v25.094a71.765 71.765 0 00-15.914 10.713zM287 320.086a7.65 7.65 0 00.023-.589c.001-4.688 3.804-8.502 8.477-8.502h61.602a7.502 7.502 0 006.854-4.454l26.398-59.398a7.504 7.504 0 00.646-3.046v-27.744c0-4.539 3.082-8.596 7.017-9.236 2.574-.419 5.053.256 6.984 1.898a8.496 8.496 0 013 6.48v32a8.468 8.468 0 01-.733 3.456l-31.999 71.998a8.504 8.504 0 01-7.765 5.046H287v-7.909zm-64-41.091h17v49h-17v-49zm-48 24.5a.5.5 0 01.5-.5H208v25h-33v-24.5zm-103.5-56.5h16a.5.5 0 01.5.5v16.5H71v-16.5a.5.5 0 01.5-.5zm-.5 32h17v25.395a70.984 70.984 0 00-17 3.93v-29.325zm24.5 153c-31.154 0-56.5-25.346-56.5-56.5s25.346-56.5 56.5-56.5 56.5 25.346 56.5 56.5-25.345 56.5-56.5 56.5zm67.514-80a70.992 70.992 0 00-3.859-9h216.691a70.992 70.992 0 00-3.859 9H163.014zm276.486 80c-31.154 0-56.5-25.346-56.5-56.5s25.346-56.5 56.5-56.5 56.5 25.346 56.5 56.5-25.345 56.5-56.5 56.5z"/>
  <path d="M471.5 367.995a7.5 7.5 0 00-7.5 7.5c0 13.509-10.991 24.5-24.5 24.5s-24.5-10.991-24.5-24.5 10.991-24.5 24.5-24.5a7.5 7.5 0 000-15c-21.78 0-39.5 17.72-39.5 39.5s17.72 39.5 39.5 39.5 39.5-17.72 39.5-39.5c0-4.143-3.357-7.5-7.5-7.5z"/>
  <path d="M434.196 370.195c-1.39 1.39-2.19 3.33-2.19 5.3s.8 3.91 2.19 5.3c1.4 1.4 3.33 2.2 5.3 2.2 1.98 0 3.91-.8 5.31-2.2a7.543 7.543 0 002.19-5.3c0-1.97-.8-3.91-2.19-5.3a7.55 7.55 0 00-5.31-2.2c-1.97 0-3.9.799-5.3 2.2z"/>
</svg>
