<svg class="icon shuttle" aria-label="space shuttle" xmlns="http://www.w3.org/2000/svg" viewBox="0 0 512 512">
  <path d="M224.208 240.105v23.787h63.582v-23.787c0-17.529-14.261-31.792-31.792-31.792-17.529 0-31.79 14.261-31.79 31.792zm48.021 0v8.225h-32.458v-8.225c0-8.948 7.281-16.229 16.229-16.229 8.949-.001 16.229 7.279 16.229 16.229zM207.975 464.421h96.04v15.562h-96.04zM231.993 488.439h48.015v15.562h-48.015zM87.927 496.438h96.04V512h-96.04zM328.033 496.438h96.04V512h-96.04zM215.984 88.259h16.007v15.562h-16.007zM248.001 88.259h16.006v15.562h-16.006zM280.008 88.259h16.007v15.562h-16.007zM127.943 184.299h16.007v15.562h-16.007z"/>
  <path d="M183.747 455.976h144.505v32.014h95.598V192.084c0-26.356-21.443-47.798-47.799-47.798-12.41 0-23.73 4.757-32.236 12.541v-52.781c0-45.798-35.247-83.498-80.035-87.452V0h-15.562v16.594c-44.788 3.954-80.035 41.653-80.035 87.452v52.781c-8.506-7.783-19.824-12.541-32.236-12.541-26.356 0-47.799 21.442-47.799 47.798V487.99h95.598v-32.014zM296.24 288.348h-16.23v15.562h16.23v16.451h-16.23v15.562h16.23v16.451h-16.23v15.562h16.23v12.302h-16.23V395.8h16.23v44.612h-80.48V395.8h16.23v-15.562h-16.23v-13.265h16.23v-15.562h-16.23V334.96h16.23v-15.562h-16.23v-16.451h16.23v-15.562h-16.23v-47.279c0-4.955 2.466-17.618 17.895-48.243h44.691c15.428 30.624 17.895 43.287 17.895 48.243v48.242zM241.8 176.299c5.267-9.737 10.369-18.605 14.201-25.119a820.801 820.801 0 0114.201 25.119H241.8zm102.016 23.566h8.226v-15.562h-7.271c3.49-14.028 16.189-24.455 31.28-24.455 15.093 0 27.791 10.428 31.281 24.456h-7.271v15.562h8.226v192.528h-62.763l-1.71-6.556V199.865zm0 256.111h18.297l-12.527-48.021h58.703v64.473h-64.474v-16.452zm-32.014-15.563V324.768l30.168 115.646h-30.168zM183.746 104.045c0-.075.005-.147.006-.222h16.223V88.261h-14.471C192.728 55.99 221.581 31.793 256 31.793s63.272 24.196 70.495 56.468h-14.471v15.562h16.223c.001.075.006.148.006.222V326.18l-16.45-63.063v-23.014c0-27.929-44.153-100.015-49.187-108.143L256 121.282l-6.615 10.679c-5.035 8.127-49.187 80.212-49.187 108.143v23.014l-16.45 63.063V192.084h-.001v-88.039zm-80.035 95.82h8.226v-15.562h-7.271c3.49-14.028 16.189-24.455 31.281-24.455 15.092 0 27.79 10.428 31.28 24.456h-7.271v15.562h8.226v185.972l-1.71 6.556h-62.763V199.865zm64.474 272.562h-64.474v-64.473h58.703l-12.527 48.021h18.297v16.452zm32.013-147.659v115.646H170.03l30.168-115.646z"/>
  <path d="M368.049 184.299h16.007v15.562h-16.007z"/>
</svg>
