<?xml version="1.0" encoding="iso-8859-1"?>
<!-- Generator: Adobe Illustrator 19.0.0, SVG Export Plug-In . SVG Version: 6.00 Build 0)  -->
<svg version="1.1" id="Layer_1" xmlns="http://www.w3.org/2000/svg" xmlns:xlink="http://www.w3.org/1999/xlink" x="0px" y="0px"
	 viewBox="0 0 512 512" style="enable-background:new 0 0 512 512;" xml:space="preserve">
<g>
	<g>
		<g>
			<path d="M224.208,240.105v23.787h63.582v-23.787c0-17.529-14.261-31.792-31.792-31.792
				C238.469,208.313,224.208,222.574,224.208,240.105z M272.229,240.105v8.225h-32.458v-8.225c0-8.948,7.281-16.229,16.229-16.229
				C264.949,223.875,272.229,231.155,272.229,240.105z"/>
			<rect x="207.975" y="464.421" width="96.04" height="15.562"/>
			<rect x="231.993" y="488.439" width="48.015" height="15.562"/>
			<rect x="87.927" y="496.438" width="96.04" height="15.562"/>
			<rect x="328.033" y="496.438" width="96.04" height="15.562"/>
			<rect x="215.984" y="88.259" width="16.007" height="15.562"/>
			<rect x="248.001" y="88.259" width="16.006" height="15.562"/>
			<rect x="280.008" y="88.259" width="16.007" height="15.562"/>
			<rect x="127.943" y="184.299" width="16.007" height="15.562"/>
			<path d="M183.747,455.976h144.505v32.014h95.598V192.084c0-26.356-21.443-47.798-47.799-47.798
				c-12.41,0-23.73,4.757-32.236,12.541v-52.781c0-45.798-35.247-83.498-80.035-87.452V0h-15.562v16.594
				c-44.788,3.954-80.035,41.653-80.035,87.452v52.781c-8.506-7.783-19.824-12.541-32.236-12.541
				c-26.356,0-47.799,21.442-47.799,47.798v295.906h95.598V455.976z M296.24,288.348h-16.23v15.562h16.23v16.451h-16.23v15.562
				h16.23v16.451h-16.23v15.562h16.23v12.302h-16.23v15.562h16.23v44.612h-80.48v-44.612h16.23v-15.562h-16.23v-13.265h16.23
				v-15.562h-16.23V334.96h16.23v-15.562h-16.23v-16.451h16.23v-15.562h-16.23v-47.279c0-4.955,2.466-17.618,17.895-48.243h44.691
				c15.428,30.624,17.895,43.287,17.895,48.243V288.348z M241.8,176.299c5.267-9.737,10.369-18.605,14.201-25.119
				c3.83,6.51,8.929,15.377,14.201,25.119H241.8z M343.816,199.865h8.226v-15.562h-7.271c3.49-14.028,16.189-24.455,31.28-24.455
				c15.093,0,27.791,10.428,31.281,24.456h-7.271v15.562h8.226v192.528h-62.763l-1.71-6.556V199.865z M343.816,455.976h18.297
				l-12.527-48.021h58.703v64.473h-64.474V455.976z M311.802,440.413V324.768l30.168,115.646H311.802z M183.746,104.045
				c0-0.075,0.005-0.147,0.006-0.222h16.223V88.261h-14.471C192.728,55.99,221.581,31.793,256,31.793s63.272,24.196,70.495,56.468
				h-14.471v15.562h16.223c0.001,0.075,0.006,0.148,0.006,0.222v88.038v134.097l-16.45-63.063v-23.014
				c0-27.929-44.153-100.015-49.187-108.143L256,121.282l-6.615,10.679c-5.035,8.127-49.187,80.212-49.187,108.143v23.014
				l-16.45,63.063V192.084h-0.001V104.045z M103.711,199.865h8.226v-15.562h-7.271c3.49-14.028,16.189-24.455,31.281-24.455
				c15.092,0,27.79,10.428,31.28,24.456h-7.271v15.562h8.226v185.972l-1.71,6.556h-62.763V199.865z M168.185,472.427h-0.001h-64.473
				v-64.473h58.703l-12.527,48.021h18.297V472.427z M200.198,324.768v115.646H170.03L200.198,324.768z"/>
			<rect x="368.049" y="184.299" width="16.007" height="15.562"/>
		</g>
	</g>
</g>
<g>
</g>
<g>
</g>
<g>
</g>
<g>
</g>
<g>
</g>
<g>
</g>
<g>
</g>
<g>
</g>
<g>
</g>
<g>
</g>
<g>
</g>
<g>
</g>
<g>
</g>
<g>
</g>
<g>
</g>
</svg>
