<svg class="icon space-capsule" aria-label="space capsule" xmlns="http://www.w3.org/2000/svg" viewBox="0 0 511 511">
  <path d="M371.688 176.691L292.604 76.039C286.593 68.388 277.565 64 267.835 64H263V45.766c9.29-3.138 16-11.93 16-22.266C279 10.542 268.458 0 255.5 0S232 10.542 232 23.5c0 10.335 6.71 19.127 16 22.266V64h-4.835c-9.73 0-18.758 4.388-24.769 12.039L139.312 176.69a15.57 15.57 0 00-3.312 9.576V383.5c0 12.958 10.542 23.5 23.5 23.5h46.851l-14.194 70.967-.009.047-.003.015c-.012.062-.017.126-.028.188a7.203 7.203 0 00-.08.536 7.443 7.443 0 00-.038.747v24a7.5 7.5 0 007.5 7.5h112a7.5 7.5 0 007.5-7.5v-24c0-.25-.013-.499-.038-.747-.018-.181-.049-.358-.08-.536-.011-.063-.016-.126-.028-.188l-.003-.015-.009-.047L304.649 407H351.5c12.958 0 23.5-10.542 23.5-23.5V186.267c0-3.458-1.177-6.86-3.312-9.576zM255.5 15c4.687 0 8.5 3.813 8.5 8.5s-3.813 8.5-8.5 8.5-8.5-3.813-8.5-8.5 3.813-8.5 8.5-8.5zM151 190.975c.166.011.331.025.5.025h208c.169 0 .334-.014.5-.025V200H151v-9.025zm79.191-105.669A16.402 16.402 0 01243.165 79h24.67c5.096 0 9.825 2.299 12.974 6.306L352.069 176H158.931l71.26-90.694zM151 247h57v113h-57V247zm56 249v-9h97v9h-97zm95.352-24h-93.703l13-65h67.703l13 65zm49.148-80h-192c-4.687 0-8.5-3.813-8.5-8.5V375h64.5a7.5 7.5 0 007.5-7.5v-128a7.5 7.5 0 00-7.5-7.5H151v-17h209v97H247.5a7.5 7.5 0 000 15H360v9H247.5a7.5 7.5 0 000 15H360v9H247.5a7.5 7.5 0 000 15H360v8.5c0 4.687-3.813 8.5-8.5 8.5z"/>
  <path d="M281.5 287h52c5.238 0 9.5-4.262 9.5-9.5v-28c0-5.238-4.262-9.5-9.5-9.5h-52c-5.238 0-9.5 4.262-9.5 9.5v28c0 5.238 4.262 9.5 9.5 9.5zm5.5-32h41v17h-41v-17z"/>
</svg>
