<?xml version="1.0" encoding="iso-8859-1"?>
<!-- Generator: Adobe Illustrator 19.0.0, SVG Export Plug-In . SVG Version: 6.00 Build 0)  -->
<svg version="1.1" id="Capa_1" xmlns="http://www.w3.org/2000/svg" xmlns:xlink="http://www.w3.org/1999/xlink" x="0px" y="0px"
	 viewBox="0 0 511 511" style="enable-background:new 0 0 511 511;" xml:space="preserve">
<g>
	<path d="M371.688,176.691L292.604,76.039C286.593,68.388,277.565,64,267.835,64H263V45.766c9.29-3.138,16-11.93,16-22.266
		C279,10.542,268.458,0,255.5,0S232,10.542,232,23.5c0,10.335,6.71,19.127,16,22.266V64h-4.835c-9.73,0-18.758,4.388-24.769,12.039
		L139.312,176.69c-2.136,2.719-3.312,6.12-3.312,9.576V383.5c0,12.958,10.542,23.5,23.5,23.5h46.851l-14.194,70.967
		c-0.003,0.016-0.006,0.031-0.009,0.047l-0.003,0.015c-0.012,0.062-0.017,0.126-0.028,0.188c-0.031,0.177-0.062,0.354-0.08,0.536
		c-0.025,0.248-0.038,0.497-0.038,0.747v24c0,4.142,3.358,7.5,7.5,7.5h112c4.142,0,7.5-3.358,7.5-7.5v-24
		c0-0.25-0.013-0.499-0.038-0.747c-0.018-0.181-0.049-0.358-0.08-0.536c-0.011-0.063-0.016-0.126-0.028-0.188l-0.003-0.015
		c-0.003-0.016-0.006-0.031-0.009-0.047L304.649,407H351.5c12.958,0,23.5-10.542,23.5-23.5V186.267
		C375,182.809,373.823,179.407,371.688,176.691z M255.5,15c4.687,0,8.5,3.813,8.5,8.5s-3.813,8.5-8.5,8.5s-8.5-3.813-8.5-8.5
		S250.813,15,255.5,15z M151,190.975c0.166,0.011,0.331,0.025,0.5,0.025h208c0.169,0,0.334-0.014,0.5-0.025V200H151V190.975z
		 M230.191,85.306c3.148-4.007,7.877-6.306,12.974-6.306h24.67c5.096,0,9.825,2.299,12.974,6.306L352.069,176H158.931
		L230.191,85.306z M151,247h57v113h-57V247z M207,496v-9h97v9H207z M302.352,472h-93.703l13-65h67.703L302.352,472z M351.5,392h-56
		h-80h-56c-4.687,0-8.5-3.813-8.5-8.5V375h64.5c4.142,0,7.5-3.358,7.5-7.5v-128c0-4.142-3.358-7.5-7.5-7.5H151v-17h209v97H247.5
		c-4.142,0-7.5,3.358-7.5,7.5s3.358,7.5,7.5,7.5H360v9H247.5c-4.142,0-7.5,3.358-7.5,7.5s3.358,7.5,7.5,7.5H360v9H247.5
		c-4.142,0-7.5,3.358-7.5,7.5s3.358,7.5,7.5,7.5H360v8.5C360,388.187,356.187,392,351.5,392z"/>
	<path d="M281.5,287h52c5.238,0,9.5-4.262,9.5-9.5v-28c0-5.238-4.262-9.5-9.5-9.5h-52c-5.238,0-9.5,4.262-9.5,9.5v28
		C272,282.738,276.262,287,281.5,287z M287,255h41v17h-41V255z"/>
</g>
<g>
</g>
<g>
</g>
<g>
</g>
<g>
</g>
<g>
</g>
<g>
</g>
<g>
</g>
<g>
</g>
<g>
</g>
<g>
</g>
<g>
</g>
<g>
</g>
<g>
</g>
<g>
</g>
<g>
</g>
</svg>
