<svg xmlns="http://www.w3.org/2000/svg" width="256" height="256" viewBox="0 0 256 256">
  <g fill-rule="evenodd">
    <path fill-rule="nonzero" d="M251.339,93.768 C250.357,90.232 246.705,88.155 243.154,89.141 C239.617,90.123 237.544,93.787 238.526,97.324 C241.299,107.309 242.704,117.63 242.704,128 C242.704,191.248 191.248,242.702 128,242.702 C64.752,242.702 13.297,191.248 13.297,128 C13.297,64.751 64.752,13.296 128,13.296 C154.793,13.296 180.718,22.814 201.179,39.752 C200.383,41.652 199.941,43.737 199.941,45.925 C199.941,54.76 207.103,61.922 215.938,61.922 C224.773,61.922 231.935,54.76 231.935,45.925 C231.935,37.09 224.773,29.928 215.938,29.928 C214.237,29.928 212.6,30.199 211.062,30.691 C188.022,11.056 158.513,0 128,0 C57.421,0 0,57.42 0,128 C0,198.579 57.421,255.999 128,255.999 C198.579,255.999 256,198.579 256,128 C256,116.428 254.433,104.91 251.339,93.768 Z"/>
    <path stroke="#000" stroke-width=".512" d="M133.02747,214.000004 C160.97233,202.721899 162.746334,171.75322 162.746334,171.75322 C162.746334,171.75322 158.748252,178.202975 150.844831,180.003423 C158.169608,172.670581 159.264393,155.480641 157.254263,157.698438 C155.651401,159.468643 148.403239,171.44676 142.29825,173.279467 C142.29825,173.279467 145.961646,147.315118 142.29825,142.121442 C142.29825,142.121442 135.279932,150.674072 131.007649,171.44676 C123.918765,170.412461 120.325934,157.396011 120.325934,157.396011 C113.612059,164.726837 121.24128,189.166955 121.24128,189.166955 C121.24128,189.166955 111.168451,189.166955 105.369921,161.976769 C91.8797466,185.805121 108.317766,207.099776 119.408613,214 L109,214 C103.876065,214 99.8568301,213.258122 96.9422942,211.774366 C93.7829422,209.740042 76.3167863,197.217556 76.9881738,169.309611 C77.294633,155.254829 85.8956512,143.671883 66,133.566795 C73.3239707,126.538397 88.8896765,139.982276 88.8896765,139.982276 C88.8896765,139.982276 93.4643859,112.396919 78.818864,102.098279 C75.3147455,99.6324921 91.0268259,99.9611292 103.234788,115.235699 C103.184383,115.419171 114.497162,99.1042533 94.9926494,73.0733704 C107.50707,71.240664 118.493228,88.6543992 118.493228,88.652383 C127.344252,86.5152336 106.591725,59.3280723 124.293774,41 C128.283792,67.8837265 134.973473,73.6862887 134.973473,73.6862887 C134.973473,73.6862887 147.02014,86.7491104 149.014141,100.265572 C149.274228,102.027712 149.929486,95.071896 149.929486,95.071896 C149.929486,95.071896 151.455733,89.8762035 144.741858,76.1298973 C170.792903,84.4143755 163.657647,126.092821 165.496402,129.89735 C174.651869,124.703674 172.20826,108.513759 172.20826,108.513759 C172.20826,108.513759 182.585532,114.011878 182.585532,128.679578 C182.585532,135.050703 176.784986,149.754694 179.226578,149.450251 C179.226578,149.450251 183.196434,148.839349 184.722681,142.423868 C190.51113,149.424041 189.910309,166.866002 189.910309,166.866002 C188.055425,196.83045 164.141529,209.064622 157.855084,211.774366 C151.217435,213.258122 145.932407,214 142,214 L133.02748,214 L133.02747,214.000004 Z"/>
  </g>
</svg>
