<svg xmlns="http://www.w3.org/2000/svg" viewBox="0 0 123 123" fill="currentColor">
  <title>Slack</title>
  <path stroke="none" stroke-width="1" stroke-dasharray="none" stroke-linecap="butt" stroke-dashoffset="0" stroke-linejoin="miter" stroke-miterlimit="4" fill-rule="nonzero"
    d="M26.4 78.2c0 7.1-5.8 12.9-12.9 12.9S.6 85.3.6 78.2c0-7.1 5.8-12.9 12.9-12.9h12.9v12.9zm6.5 0c0-7.1 5.8-12.9 12.9-12.9s12.9 5.8 12.9 12.9v32.3c0 7.1-5.8 12.9-12.9 12.9s-12.9-5.8-12.9-12.9V78.2zm12.9-51.8c-7.1 0-12.9-5.8-12.9-12.9S38.7.6 45.8.6s12.9 5.8 12.9 12.9v12.9H45.8zm0 6.5c7.1 0 12.9 5.8 12.9 12.9s-5.8 12.9-12.9 12.9H13.5C6.4 58.7.6 52.9.6 45.8s5.8-12.9 12.9-12.9h32.3zM97.6 45.8c0-7.1 5.8-12.9 12.9-12.9 7.1 0 12.9 5.8 12.9 12.9s-5.8 12.9-12.9 12.9H97.6V45.8zm-6.5 0c0 7.1-5.8 12.9-12.9 12.9-7.1 0-12.9-5.8-12.9-12.9V13.5C65.3 6.4 71.1.6 78.2.6c7.1 0 12.9 5.8 12.9 12.9v32.3zM78.2 97.6c7.1 0 12.9 5.8 12.9 12.9 0 7.1-5.8 12.9-12.9 12.9-7.1 0-12.9-5.8-12.9-12.9V97.6h12.9zm0-6.5c-7.1 0-12.9-5.8-12.9-12.9 0-7.1 5.8-12.9 12.9-12.9h32.3c7.1 0 12.9 5.8 12.9 12.9 0 7.1-5.8 12.9-12.9 12.9H78.2z"/>
</svg>
