<svg xmlns="http://www.w3.org/2000/svg" viewBox="0 0 412 246">
  <path d="M41.477 181.457C45.994 180.003 48.332 183.149 49.219 185.811 52.445 192.105 49.38 194.281 47.284 197.419L42.929 195.974 43.897 212.905 50.187 235.161 43.413 235.161 39.543 221.129 37.123 214.359 36.155 204.682 33.252 214.36 37.607 219.684 39.059 226.452 33.252 231.292 30.832 229.362 31.8 221.614 26.961 211.936 20.671 214.845 20.671 230.807 27.445 236.615 27.445 238.555 15.35 238.555 13.414 235.161 13.414 224.523 12.448 221.613 10.028 221.613 6.641 227.907 10.996 229.362 9.544 233.231.834 229.361.834 224.523 9.06 214.845 4.221 207.097 7.609 198.389 18.253 194.519 30.833 188.711 41.477 181.457zM80.681 219.161L79.721 207.068 76.811 207.068 73.426 220.615 67.136 226.424 67.136 234.162 70.523 237.547 74.882 237.062 76.812 241.416 66.169 241.416 59.394 237.546 61.33 218.191 67.62 207.553 68.104 191.097 65.685 186.258 67.62 148.032 74.394 141.748 76.327 135.217C75.443 131.347 76.004 128.686 77.297 127.231L85.035 127.231C91.813 130.939 93.505 133.686 95.198 141.263L93.99 144.647 87.46 145.617 87.46 181.419 85.52 185.773 90.359 200.775 92.783 233.678 102.946 238.032 98.106 240.456 82.136 240.456 83.59 229.323 81.65 223.515 80.681 219.161zM148.426 135.454L144.556 129.16 146.971 124.331 153.749 124.806 156.649 120.937 156.649 113.814 153.749 109.814 148.91 104.975 137.293 106.42 132.293 112.457 131.409 125.007 127.131 130.615 120.362 151.425 120.847 166.902 123.261 184.813 122.701 196.164 131.009 199.32 129.555 207.068 118.907 227.868 113.583 238.516 127.615 244.809 135.363 245.294 134.878 241.416 126.646 234.647 139.717 212.392 140.678 202.714 146.971 205.128 146.971 222.069 158.588 241.416 157.618 243.84 176.004 242.87 174.55 240.94 162.942 235.616 154.709 200.774 145.041 180.934 146.486 162.064 150.356 152.87 148.426 135.454zM197.356 183.796C192.203 177.598 191.148 169.678 195.226 162.111 195.53 162.14 195.828 162.176 196.12 162.219L197.356 154.762 193.002 147.024 190.102 132.507 197.841 117.506 199.295 105.413 203.165 102.029 212.871 98.635C219.316 102.266 225.761 107.267 225.705 114.321L222.263 119.645 214.782 118.96 214.782 124.769 218.622 129.379C224.726 141.843 218.166 151.216 219.136 162.995L218.651 170.734 220.096 173.148 226.874 179.442 226.874 187.665 219.621 187.665 218.651 197.828 215.267 237.994 225.363 239.439 226.493 243.089 220.2 243.346 204.914 243.479 203.992 239.505 206.834 234.505 204.543 219.579 198.829 220.739 193.116 227.717C192.213 231.833 193.021 235.597 194.856 238.003 199.504 243.051 193.192 244.677 186.205 241.863L180.909 228.801 187.307 221.633 191.034 210.443 200.626 205.889 200.265 199.767 197.356 183.796zM259.913 154.148C259.75 153.588 259.673 153.158 259.716 152.872 258.908 144.164 259.069 131.586 258.261 122.878 258.584 120.131 258.908 117.393 259.231 114.655 261.493 111.099 263.746 107.553 266.009 104.007L265.524 101.098C264.231 100.138 262.938 99.168 261.655 98.198 261.817 94.491 261.978 90.783 262.13 87.066 265.847 84.166 265.79 80.583 271.894 79.727 278.919 75.744 281.971 85.944 282.456 88.521 286.286 93.701 284.519 98.931 283.91 103.037L277.617 103.522 276.647 109.331C283.321 118.838 285.041 125.055 285.365 151.911 289.557 156.266 290.765 164.023 296.088 169.081 297.172 170.782 300.3 173.92 301.184 177.161 301.507 178.321 299.996 181.306 295.765 179.975 292.818 178.473 291.972 175.545 291.43 171.971 287.038 162.749 283.74 166.447 281.315 159.992 284.224 174.994 284.072 189.653 283.91 204.645 280.84 206.908 281.191 206.775 278.13 209.037 278.13 214.199 274.717 221.747 274.717 226.91 275.364 228.84 276.01 232.148 276.647 234.078 281.163 236.502 285.678 236.179 290.194 238.603 290.679 239.896 291.164 242.548 291.649 243.841 282.294 244.165 264.859 244.355 265.667 242.425 267.559 233.27 265.857 222.242 265.695 215.15 261.503 216.595 255.2 220.854 251.007 222.309 248.907 225.531 247.785 225.369 245.684 228.602 245.199 232.472 245.684 237.31 245.199 241.179 243.991 243.357 242.299 244.326 239.39 242.872 238.905 237.386 238.183 232.386 237.698 226.91 235.359 219.57 239.476 220.056 245.198 216.262 252.3 209.969 259.05 205.558 266.152 199.274 264.051 189.919 262.292 178.682 260.2 169.328L258.746 166.418 259.231 158.68 259.912 154.148 259.913 154.148zM314.122 4.064C317.518 2.879 328.484.811 328.484.811L334.044 3.631C341.234 8.824 340.769 18.302 342.298 26.088 345.1 36.201 348.642 46.118 351.506 56.229 351.243 58.703 349.925 60.475 348.124 61.853L341.479 66.934 339.172 71.615 339.935 78.009 338.804 80.395 334.172 81.093 328.682 79.684 326.138 74.729 328.787 72.536 332.459 70.554 335.763 63.931 340.764 59.365 345.953 58.365 349.301 57.353 346.117 57.071 341.41 58.083 336.603 61.286 331.655 69.792 325.462 73.523C320.114 57.821 313.382 42.496 309.53 26.341 308.47 20.427 309.25 14.449 312.073 9.146L314.122 4.064 314.122 4.064zM337.278 59.48C332.166 50.956 328.664 41.539 325.325 32.204 322.379 23.654 319.677 15.009 317.557 6.213 315.782 5.695 319.302 14.436 319.614 17.093 323.907 31.851 328.934 46.665 336.524 60.03L336.865 59.958 337.278 59.48zM370.208 41.901L372.208 44.545 376.503 52.975 378.529 56.071 381.066 62.724C381.066 62.724 380.775 75.011 384.846 79.007L395.111 96.447 396.901 106.763 393.249 115.723 388.207 125.09 384.891 129.295 379.75 130.89 369.312 134.007 359.452 141.525 362.901 149.69 363.523 155.638 359.516 158.868 351.114 153.123 346.413 144.008 343.143 140.921 341.183 137.149 341.519 134.229 343.216 132.074 340.02 129.512 337.86 124.982 338.427 121.746 341.52 121.113C344.82 117.779 354.275 111.135 354.275 111.135 357.377 109.654 361.486 109.623 361.486 109.623L359.286 102.993 352.92 96.215 345.6 83.835 341.099 78.052 340.429 72.262 341.677 68.162 345.183 64.912C350.205 62.112 352.446 57.842 352.22 55.932 351.884 53.098 350.706 49.29 349.343 46.674 347.469 38.222 343.139 30.179 342.334 21.63 343.549 15.046 338.359 8.166 337.029 3.746 339.613.996 346.689.321 346.689.321L353.414 3.118 357.904 8.348C357.904 8.348 368.086 10.671 372.262 15.089 379.001 15.614 391.249 8.552 391.249 8.552 394.282 9.047 399.416 9.046 403.547 9.338L407.943 9.648 411.439 11.335 407.636 17.709 406.937 21.087 404.263 20.656 395.945 21.819 387.278 25.554 377.787 28.044 373.147 29.615 372.112 39.923 370.987 41.464 370.208 41.901zM355.078 31.731L359.516 33.327 365.366 32.673 369.726 30.79 361.759 32.572 355.078 31.731zM395.321 61.924L395.568 64.13 393.909 67.033 389.958 68.426 386.552 66.402 383.184 65.752 381.066 62.724 378.529 56.071 381.304 56.253 386.496 56.286 391.506 57.026 396.886 60.224 395.321 61.924zM365.421 89.268L374.131 102.56 368.891 105.917 373.219 102.081 365.421 89.268zM376.029 124.186L380.325 123.234 384.851 121.764 387.806 119.699 383.989 121.414 379.43 122.907 367.552 125.475 360.422 129.627 367.501 126.147 371.971 124.873 376.029 124.186z"/>
</svg>
