<svg xmlns="http://www.w3.org/2000/svg" width="800" height="418" viewBox="0 0 800 418">
  <g fill="none" fill-rule="evenodd">
    <path fill="#000" fill-rule="nonzero" d="M52.9560161,225.52069 C58.8414656,223.710409 61.8877754,227.62729 63.0434968,230.941573 C67.2468309,238.777824 63.2532726,241.487021 60.5222781,245.393941 L54.8479074,243.594866 L56.1091682,264.674556 L64.3047576,292.384059 L55.4785378,292.384059 L50.4361004,274.913725 L47.2829483,266.484837 L46.0216875,254.436632 L42.239208,266.486082 L47.9135787,273.114649 L49.80547,281.541047 L42.239208,287.567018 L39.0860559,285.1641 L40.3473168,275.517567 L34.0423156,263.468117 L25.8467262,267.089924 L25.8467262,286.963176 L34.672946,294.19434 L34.672946,296.609708 L18.9137005,296.609708 L16.3911789,292.384059 L16.3911789,279.139375 L15.132524,275.516322 L11.9793719,275.516322 L7.56626198,283.352574 L13.2406327,285.1641 L11.3487415,289.981141 L0,285.162855 L0,279.139375 L10.7181111,267.089924 L4.41310992,257.443392 L8.8275228,246.601625 L22.69618,241.783339 L39.0873589,234.552175 L52.9560161,225.52069 Z M104.037079,272.463496 L102.786242,257.407286 L98.9946421,257.407286 L94.584138,274.273777 L86.3885486,281.506186 L86.3885486,291.140269 L90.8016585,295.354713 L96.4812411,294.750871 L98.995945,300.171754 L85.1285907,300.171754 L76.3010679,295.353468 L78.8235896,271.255812 L87.019179,258.011128 L87.6498094,237.522829 L84.4979603,231.498104 L87.019179,183.90539 L95.8453989,176.081589 L98.3640116,167.950264 C97.2121991,163.131978 97.943157,159.818939 99.6278784,158.007413 L109.710147,158.007413 C118.541579,162.624003 120.746179,166.044115 122.952083,175.477747 L121.378113,179.690946 L112.869814,180.89863 L112.869814,225.473379 L110.342081,230.894262 L116.647082,249.572279 L119.805446,290.537671 L133.047381,295.958555 L126.741077,298.97652 L105.93288,298.97652 L107.827377,285.115543 L105.299643,277.884379 L104.037079,272.463496 Z M192.305793,168.245337 L187.263355,160.409086 L190.409993,154.396811 L199.241424,154.988203 L203.019995,150.171162 L203.019995,141.302776 L199.241424,136.322636 L192.936423,130.29791 L177.79999,132.096986 L171.285213,139.613264 L170.133401,155.238455 L164.559358,162.220612 L155.739652,188.129794 L156.371586,207.399203 L159.51692,229.699028 L158.787265,243.831422 L169.612219,247.760753 L167.717721,257.407286 L153.843852,283.304017 L146.906918,296.561152 L165.189988,304.396158 L175.285286,305 L174.653353,300.171754 L163.927424,291.744111 L180.958354,264.035853 L182.210494,251.986403 L190.409993,254.991917 L190.409993,276.084058 L205.546425,300.171754 L204.282559,303.189719 L228.238697,301.982035 L226.344199,299.579117 L211.219493,292.95055 L200.492261,249.571034 L187.895289,224.869537 L189.778059,201.375723 L194.820497,189.92887 L192.305793,168.245337 Z M256.0594,228.432827 C249.345271,220.716099 247.970653,210.855421 253.284105,201.43424 C253.680204,201.470346 254.068484,201.515167 254.448947,201.568703 L256.0594,192.284476 L250.386332,182.650394 L246.607762,164.576219 L256.691334,145.899446 L258.585831,130.843236 L263.628268,126.630037 L276.274753,122.404387 C284.672301,126.92511 293.069848,133.151531 292.996883,141.934009 L288.51211,148.562576 L278.764701,147.709727 L278.764701,154.942136 L283.76805,160.681749 C291.721289,176.199867 283.173902,187.869582 284.437769,202.534851 L283.805835,212.170178 L285.688606,215.175693 L294.520038,223.011944 L294.520038,233.249868 L285.069702,233.249868 L283.805835,245.903161 L279.396634,295.911243 L292.551272,297.710319 L294.023612,302.254697 L285.824113,302.574671 L265.907137,302.740261 L264.705812,297.792491 L268.408811,291.567316 L265.423741,272.983921 L257.978653,274.428161 L250.534869,283.116017 C249.358301,288.240582 250.411089,292.926894 252.802012,295.922449 C258.858148,302.207386 250.633894,304.231813 241.530145,300.728284 L234.629693,284.465635 L242.966001,275.541223 L247.822116,261.609279 L260.320064,255.939389 L259.849697,248.317284 L256.0594,228.432827 Z M337.568381,191.520025 C337.355999,190.822805 337.255672,190.28744 337.311699,189.93136 C336.258911,179.089594 336.468686,163.429541 335.415898,152.587775 C335.836753,149.167663 336.258911,145.758757 336.679765,142.349851 C339.62705,137.922506 342.562609,133.507611 345.511197,129.092716 L344.879264,125.470909 C343.194542,124.275675 341.509821,123.067991 339.838129,121.860307 C340.049208,117.244962 340.258984,112.628371 340.457033,108.000576 C345.300118,104.389974 345.22585,99.9290126 353.179089,98.8632625 C362.332351,93.9042874 366.308971,106.603646 366.940904,109.812102 C371.931223,116.261384 369.628901,122.772918 368.835401,127.885032 L360.635903,128.488874 L359.372036,135.721284 C368.067961,147.557833 370.309044,155.298217 370.731202,188.734881 C376.193191,194.157009 377.767161,203.814747 384.702792,210.112135 C386.115196,212.22994 390.19084,216.13686 391.342653,220.172019 C391.763508,221.61626 389.794742,225.33269 384.281938,223.675548 C380.442128,221.805505 379.339828,218.160042 378.633626,213.710286 C372.911046,202.228572 368.613899,206.832712 365.454232,198.79601 C369.244529,217.474028 369.04648,235.724998 368.835401,254.390565 C364.835328,257.20808 365.292666,257.04249 361.304319,259.85876 C361.304319,266.285631 356.857332,275.683157 356.857332,282.111273 C357.700345,284.514191 358.542054,288.632768 359.372036,291.035686 C365.256183,294.053651 371.139027,293.651504 377.023173,296.66947 C377.655106,298.2793 378.28704,301.581133 378.918973,303.190964 C366.729826,303.594355 344.012798,303.830912 345.065586,301.427994 C347.530778,290.029697 345.313148,276.299449 345.102069,267.46966 C339.64008,269.268736 331.427552,274.571341 325.96426,276.382867 C323.228054,280.39437 321.766138,280.192674 319.028628,284.217873 C318.396695,289.036159 319.028628,295.059639 318.396695,299.87668 C316.822725,302.588367 314.618124,303.794806 310.827827,301.984525 C310.195894,295.154262 309.25516,288.929086 308.623227,282.111273 C305.575614,272.972715 310.939881,273.577802 318.395392,268.854139 C327.648981,261.019133 336.44393,255.527283 345.69752,247.703482 C342.96001,236.056178 340.668112,222.065717 337.942329,210.419658 L336.047832,206.796606 L336.679765,197.162524 L337.567078,191.520025 L337.568381,191.520025 Z M408.20029,4.66016663 C412.625126,3.18479996 426.913335,0.610067232 426.913335,0.610067232 L434.157767,4.1210664 C443.526016,10.586534 442.920142,22.3869773 444.912361,32.0808212 C448.563242,44.6718618 453.17831,57.0188755 456.909974,69.6074261 C456.567297,72.6876431 454.850002,74.8938454 452.503379,76.6095039 L443.845241,82.9355276 L440.839322,88.7635372 L441.833477,96.7242921 L440.359835,99.694946 L434.324545,100.563981 L427.17132,98.809726 L423.856602,92.6405767 L427.308131,89.9102146 L432.092583,87.4425549 L436.397548,79.196687 L442.913627,73.5118564 L449.674663,72.2668212 L454.036958,71.0068457 L449.888348,70.6557457 L443.755337,71.9157213 L437.49203,75.903569 L431.045007,86.4938381 L422.975804,91.1390643 C416.007599,71.5895221 407.236103,52.5093582 402.217119,32.395815 C400.835986,25.0326771 401.852291,17.5898568 405.530534,10.9874354 L408.20029,4.66016663 L408.20029,4.66016663 Z M438.371525,73.6550355 C431.710817,63.0423557 427.147867,51.3178595 422.797299,39.6954562 C418.958793,29.0504056 415.438207,18.2870765 412.675942,7.3357472 C410.363196,6.69081899 414.949599,17.5736714 415.356121,20.8817298 C420.949708,39.2559588 427.499665,57.6999098 437.389097,74.3398048 L437.833404,74.2501623 L438.371525,73.6550355 Z M481.277846,51.7685622 L483.883757,55.0604352 L489.47995,65.5560817 L492.119738,69.4107106 L495.425336,77.6939295 C495.425336,77.6939295 495.046176,92.9916766 500.350507,97.9668372 L513.725344,119.68025 L516.057634,132.524033 L511.299241,143.679548 L504.72974,155.341793 L500.40914,160.577166 L493.710646,162.562997 L480.110398,166.443771 L467.263258,175.803946 L471.757151,185.969658 L472.567589,193.375127 L467.346647,197.396591 L456.399216,190.243864 L450.274022,178.895368 L446.013358,175.051945 L443.459566,170.355672 L443.897359,166.720169 L446.108474,164.037118 L441.944229,160.847338 L439.129845,155.207329 L439.868621,151.178395 L443.898662,150.390288 C448.198415,146.239341 460.517858,137.967327 460.517858,137.967327 C464.559625,136.12343 469.913469,136.084834 469.913469,136.084834 L467.046967,127.830251 L458.752353,119.391402 L449.21472,103.977867 L443.350118,96.7778286 L442.477137,89.569075 L444.103226,84.4644308 L448.671387,80.4180665 C455.214829,76.931968 458.134752,71.6156678 457.840284,69.2376507 C457.402491,65.709221 455.86761,60.9681271 454.091682,57.7111151 C451.649943,47.1880779 446.008147,37.17426 444.959267,26.5304544 C446.542358,18.3331428 439.78002,9.76730089 438.047089,4.26424545 C441.413926,0.840398738 450.633638,0 450.633638,0 L459.396013,3.48236336 L465.246283,9.99389729 C465.246283,9.99389729 478.512975,12.886114 483.954116,18.3866793 C492.734733,19.0403228 508.693331,10.2478845 508.693331,10.2478845 C512.645194,10.8641769 519.334567,10.8629318 524.717076,11.2264821 L530.444868,11.612443 L535,13.7128173 L530.044861,21.6486715 L529.134095,25.8544003 L525.649992,25.3177901 L514.812009,26.765766 L503.519295,31.4159724 L491.152945,34.5161099 L485.107232,36.4720602 L483.758673,49.3058827 L482.292848,51.2244819 L481.277846,51.7685622 Z M461.564131,39.1065546 L467.346647,41.0936307 L474.968936,40.2793777 L480.649822,37.9349765 L470.269176,40.1536292 L461.564131,39.1065546 Z M513.998965,76.6979014 L514.320795,79.444449 L512.159192,83.0587861 L507.011215,84.7931201 L502.573349,82.2731689 L498.184995,81.463896 L495.425336,77.6939295 L492.119738,69.4107106 L495.735439,69.637307 L502.500384,69.6783931 L509.02819,70.5997192 L516.03809,74.5813416 L513.998965,76.6979014 Z M475.040599,110.742143 L486.38934,127.29115 L479.561854,131.470734 L485.201045,126.694779 L475.040599,110.742143 Z M488.862349,154.216281 L494.459846,153.031007 L500.357022,151.200806 L504.207255,148.629808 L499.233874,150.765043 L493.293701,152.623881 L477.817197,155.821131 L468.527125,160.990517 L477.750746,156.657795 L483.574956,155.07162 L488.862349,154.216281 Z" transform="translate(243 92)"/>
    <text fill="#000" font-family="RecursiveMonoLnr-Light, Recursive" font-size="78" font-style="italic" font-weight="300" letter-spacing="-4.9">
      <tspan x="39" y="138">TheNext</tspan> <tspan x="39" y="192.5" font-family="RecursiveMonoLnr-SemiBold, Recursive" font-weight="500" letter-spacing="-6.7">Evolution</tspan> <tspan x="399.9" y="192.5">Of</tspan> <tspan x="39" y="247" letter-spacing="-25.1"> </tspan> <tspan x="82.4" y="247" letter-spacing="-.7">GraphQL</tspan> <tspan x="39" y="301.5" font-family="RecursiveMonoLnr-Med, Recursive" font-weight="500">Fro</tspan> <tspan x="179.4" y="301.5" font-family="RecursiveMonoLnr-Med, Recursive" font-weight="500" letter-spacing="-2.2">n</tspan> <tspan x="224" y="301.5" font-family="RecursiveMonoLnr-Med, Recursive" font-weight="500" letter-spacing="1.9">tE</tspan> <tspan x="321.4" y="301.5" font-family="RecursiveMonoLnr-Med, Recursive" font-weight="500" letter-spacing="-3.2">n</tspan> <tspan x="365" y="301.5" font-family="RecursiveMonoLnr-Med, Recursive" font-weight="500">d</tspan> <tspan x="411.8" y="301.5" font-family="RecursiveMonoLnr-Med, Recursive" font-weight="500" letter-spacing="-11.6">s</tspan>
    </text>
  </g>
</svg>
