<svg xmlns="http://www.w3.org/2000/svg" viewBox="0 0 362.73401 511.99998">
  <title>CSS3 Logo</title>
  <path fill="#264de4" d="M362.734 100.62l-33.046 370.199L181.145 512 33.011 470.877 0 100.62z"/>
  <path fill="#2965f1" d="M301.397 447.246l28.24-316.352h-148.27v349.629z"/>
  <path fill="#ebebeb" d="M75.677 268.217l4.07 45.41h101.62v-45.41zM181.367 176.305H67.499l4.128 45.411h109.74zM181.367 433.399v-47.246l-.199.053-50.574-13.656-3.233-36.217H81.776l6.362 71.301 93.02 25.823z"/>
  <path fill="var(--w3-logo-text, white)" d="M85.367 0h55v23h-32v23h32v23h-55zM151.367 0h55v20h-32v4h32v46h-55V49h32v-4h-32zM217.367 0h55v20h-32v4h32v46h-55V49h32v-4h-32z"/>
  <path fill="#fff" d="M237.128 313.627l-5.271 58.894-50.647 13.67v47.244l93.094-25.801.683-7.672 10.671-119.551 1.108-12.194 8.198-91.912H181.21v45.411h63.988l-4.132 46.501H181.21v45.41z"/>
</svg>
