<?xml version="1.0" standalone="no"?>
<!DOCTYPE svg PUBLIC "-//W3C//DTD SVG 20010904//EN"
 "http://www.w3.org/TR/2001/REC-SVG-20010904/DTD/svg10.dtd">
<svg version="1.0" xmlns="http://www.w3.org/2000/svg"
 width="700.000000pt" height="700.000000pt" viewBox="0 0 700.000000 700.000000"
 preserveAspectRatio="xMidYMid meet">
<metadata>
Created by potrace 1.11, written by Peter Selinger 2001-2013
</metadata>
<g transform="translate(0.000000,700.000000) scale(0.100000,-0.100000)"
fill="#000000" stroke="none">
<path d="M6855 6439 c-500 -106 -956 -254 -1167 -379 -84 -51 -102 -69 -717
-712 l-102 -106 -57 3 c-31 2 -142 6 -247 9 -104 4 -266 9 -360 12 -300 9
-395 12 -651 19 l-250 7 -116 -118 c-64 -66 -132 -137 -153 -159 -20 -22 -80
-85 -133 -140 -53 -55 -105 -110 -115 -121 -17 -21 -16 -22 155 -109 178 -90
408 -209 673 -345 83 -43 170 -87 193 -99 l44 -22 -95 -97 c-127 -129 -197
-205 -197 -213 0 -3 70 -73 156 -155 86 -82 196 -187 244 -234 48 -47 168
-161 266 -255 97 -93 209 -200 248 -237 38 -38 73 -68 76 -68 3 0 71 68 150
150 79 83 147 147 151 143 7 -8 108 -183 122 -214 4 -8 15 -27 25 -44 10 -16
34 -57 52 -90 18 -33 36 -64 40 -70 4 -5 21 -35 38 -65 60 -110 312 -554 317
-558 2 -3 19 10 36 29 17 19 123 129 234 244 111 116 217 226 235 245 l32 34
-7 96 c-3 52 -8 115 -10 140 -2 25 -6 86 -10 135 -3 50 -8 115 -10 145 -3 30
-7 87 -10 125 -6 90 -14 205 -20 275 -2 30 -7 89 -10 130 -2 41 -7 109 -10
150 -12 157 -14 178 -19 275 l-6 100 122 126 c143 146 459 475 536 557 67 71
115 143 159 240 33 72 108 280 118 326 2 11 11 46 20 76 39 135 118 491 139
630 3 19 8 49 11 65 16 85 25 139 25 142 0 7 -61 0 -145 -18z m-141 -361 c-14
-62 -26 -122 -28 -133 -2 -11 -14 -58 -26 -105 -12 -47 -23 -92 -25 -100 -21
-100 -101 -343 -138 -420 l-32 -69 -106 102 c-231 224 -507 488 -529 507 -13
11 -21 22 -18 25 17 17 218 101 343 143 129 44 387 119 465 136 14 3 41 10 60
15 19 5 40 9 46 10 8 1 3 -37 -12 -111z m-958 -443 c29 -27 134 -129 235 -225
101 -96 219 -210 263 -252 l79 -76 -100 -104 c-56 -57 -122 -125 -148 -153
-26 -27 -132 -138 -235 -245 -103 -107 -202 -211 -220 -230 -18 -19 -128 -134
-244 -254 -116 -121 -222 -231 -236 -246 -14 -14 -109 -114 -211 -221 -103
-107 -234 -243 -292 -304 l-104 -109 -30 29 c-17 17 -117 113 -223 215 -107
102 -248 238 -314 302 l-121 117 25 24 c21 20 181 186 448 466 62 65 343 357
452 470 124 129 431 450 478 499 28 29 126 131 218 227 l168 175 30 -27 c17
-16 53 -50 82 -78z m-2006 -569 c135 -4 288 -9 340 -11 86 -4 485 -17 553 -18
l28 -1 -38 -40 c-65 -68 -112 -118 -298 -311 -99 -103 -214 -224 -257 -268
-58 -62 -79 -78 -90 -70 -7 5 -139 74 -293 153 -460 235 -574 295 -568 300 3
3 63 66 134 141 l128 135 58 -2 c32 -1 168 -5 303 -8z m1925 -1081 c3 -50 8
-110 10 -135 2 -25 7 -85 10 -135 3 -49 7 -112 10 -140 2 -27 7 -86 10 -130 3
-44 8 -109 10 -145 8 -112 16 -213 20 -260 2 -25 7 -89 10 -142 l6 -97 -33
-34 c-18 -19 -79 -82 -135 -140 l-102 -106 -72 127 c-40 70 -81 143 -92 162
-11 19 -47 85 -82 145 -34 61 -73 130 -87 155 -14 25 -53 93 -87 152 -33 59
-62 112 -63 117 -3 9 152 175 442 474 63 65 137 143 164 173 27 30 50 53 52
51 1 -1 5 -43 9 -92z"/>
<path d="M5667 5232 c-42 -43 -77 -82 -77 -88 0 -10 112 -121 139 -138 9 -6
36 16 87 70 41 44 73 84 71 89 -1 6 -34 40 -73 77 l-70 67 -77 -77z"/>
<path d="M5416 4970 l-77 -79 73 -70 c40 -39 77 -71 82 -71 9 0 155 150 156
161 0 9 -137 139 -147 139 -5 0 -44 -36 -87 -80z"/>
<path d="M5175 4719 l-79 -81 78 -74 77 -73 37 37 c20 21 57 59 81 85 l44 46
-74 70 c-41 39 -77 70 -80 71 -3 0 -41 -36 -84 -81z"/>
<path d="M4202 3887 c-40 -40 -72 -75 -72 -78 0 -10 320 -318 330 -319 3 0 38
33 78 73 l73 73 -163 156 c-90 86 -165 159 -169 162 -3 3 -37 -27 -77 -67z"/>
<path d="M2553 4638 l-52 -52 71 -73 c40 -40 75 -73 79 -73 14 0 99 88 99 102
0 12 -129 148 -140 148 -3 0 -29 -23 -57 -52z"/>
<path d="M2231 4316 c-108 -108 -151 -158 -146 -167 13 -22 128 -139 137 -139
10 0 318 307 318 318 0 11 -134 142 -145 142 -6 0 -79 -69 -164 -154z"/>
<path d="M1915 4016 c-16 -18 -64 -68 -105 -112 -143 -153 -347 -385 -505
-573 -16 -20 -32 -38 -35 -41 -10 -9 -266 -334 -326 -415 -213 -282 -465 -663
-598 -905 -57 -102 -170 -337 -209 -430 -140 -341 -172 -634 -88 -798 51 -99
155 -176 271 -199 45 -9 193 -9 240 0 230 45 474 145 765 312 115 66 117 67
330 209 510 341 995 749 1573 1322 l223 221 -74 72 c-40 39 -77 71 -80 71 -4
0 -94 -87 -200 -192 -254 -253 -395 -386 -602 -568 -194 -170 -256 -223 -279
-240 -23 -16 -52 -39 -105 -86 -145 -126 -612 -457 -821 -581 -185 -110 -449
-243 -483 -243 -7 0 -17 -4 -22 -9 -15 -13 -162 -59 -229 -70 -172 -31 -272
-4 -316 84 -21 43 -25 63 -24 145 1 52 7 115 14 140 7 25 14 56 17 70 8 45 60
193 108 305 119 280 343 659 619 1050 39 55 73 102 76 105 3 3 25 32 49 65 99
135 274 355 405 509 22 27 54 65 71 85 16 20 32 38 35 41 3 3 53 59 110 125
58 66 112 127 120 136 8 8 65 69 125 134 61 65 116 124 124 132 11 12 4 23
-46 71 -105 100 -94 95 -128 58z"/>
<path d="M3384 3708 c-33 -35 -64 -69 -68 -76 -6 -9 8 -29 42 -60 28 -26 140
-133 249 -238 109 -105 221 -212 248 -239 28 -26 139 -133 249 -239 109 -105
201 -192 205 -194 3 -1 40 31 80 72 l75 75 -50 47 c-27 26 -137 131 -244 234
-107 103 -215 207 -240 230 -39 37 -419 402 -456 438 -20 19 -27 16 -90 -50z"/>
<path d="M3302 3286 l-72 -75 29 -28 c16 -15 73 -71 126 -123 l98 -94 74 78
74 79 -123 118 c-68 65 -126 118 -129 119 -3 0 -38 -33 -77 -74z"/>
<path d="M3730 2889 c-36 -39 -67 -74 -68 -80 -3 -8 219 -230 237 -236 8 -3
26 12 95 85 l60 61 -25 21 c-13 12 -67 63 -119 114 -52 51 -100 95 -105 98 -6
4 -40 -25 -75 -63z"/>
</g>
</svg>
